<svg width="449" height="71" viewBox="0 0 449 71" fill="none" xmlns="http://www.w3.org/2000/svg">
<path d="M0.674316 37V33.77L2.45166 33.5137L10.125 12.1172H15.8843L23.5405 33.5137L25.3008 33.77V37H16.4482V33.77L18.123 33.4624L17.1831 30.3862H8.79199L7.88623 33.4624L9.56104 33.77V37H0.674316ZM10.0225 26.4556H15.9526L13.2866 18.3892L13.0303 17.5859H12.9277L12.6543 18.4575L10.0225 26.4556ZM37.7251 37.3589C35.3325 37.3589 33.2248 36.869 31.4019 35.8892C29.5789 34.8979 28.1605 33.4852 27.1465 31.6509C26.1325 29.8166 25.6255 27.6177 25.6255 25.0542V24.0801C25.6255 21.6761 26.104 19.5513 27.061 17.7056C28.0181 15.8485 29.3796 14.3958 31.1455 13.3477C32.9229 12.2881 35.0306 11.7583 37.4688 11.7583C39.1777 11.7583 40.7899 11.9919 42.3052 12.459C43.8319 12.9261 45.2161 13.6838 46.458 14.7319V20.9355H42.4419L41.895 17.21C41.5076 16.9479 41.0975 16.7201 40.6646 16.5264C40.2316 16.3327 39.7645 16.1846 39.2632 16.082C38.7619 15.9795 38.2207 15.9282 37.6396 15.9282C36.2952 15.9282 35.1331 16.2529 34.1533 16.9023C33.1735 17.5518 32.4159 18.4803 31.8804 19.688C31.3449 20.8957 31.0771 22.3483 31.0771 24.0459V25.0542C31.0771 26.6948 31.3506 28.1304 31.8975 29.3608C32.4557 30.5799 33.2419 31.5256 34.2559 32.1978C35.2699 32.87 36.4491 33.2061 37.7935 33.2061C38.4998 33.2061 39.2062 33.132 39.9126 32.9839C40.619 32.8244 41.2798 32.6193 41.895 32.3687L42.459 28.8652H46.4751V34.9492C45.4953 35.61 44.2591 36.1797 42.7666 36.6582C41.2855 37.1253 39.605 37.3589 37.7251 37.3589ZM48.7651 37V33.77L51.3628 33.2402V15.894L48.7651 15.3643V12.1172H74.4854V15.3643L71.8877 15.894V33.2402L74.4854 33.77V37H63.8042V33.77L66.4189 33.2402V16.3042H56.8315V33.2402L59.4634 33.77V37H48.7651ZM76.0405 37V33.77L78.6724 33.2402V15.894L76.0405 15.3643V12.1172H95.6255V19.0557H91.4727L91.2847 16.3213H84.1411V22.0293H92.3271V26.2505H84.1411V32.7959H91.6436L91.8315 29.959H95.9502V37H76.0405ZM98.4624 37V33.77L101.06 33.2402V15.894L98.4624 15.3643V12.1172H108.973V15.3643L106.529 15.894V21.978H108.631L113.023 15.6719C114.037 14.2477 114.988 13.2565 115.877 12.6982C116.766 12.14 117.745 11.8608 118.816 11.8608C119.477 11.8608 120.081 11.9463 120.628 12.1172C121.186 12.2767 121.676 12.4932 122.098 12.7666L121.158 16.9194C120.93 16.8511 120.725 16.7998 120.542 16.7656C120.36 16.7314 120.172 16.7144 119.979 16.7144C119.511 16.7144 119.021 16.8625 118.509 17.1587C118.007 17.4435 117.426 18.0189 116.766 18.8848L113.296 23.5845L119.773 33.3428L122.457 33.77V37H112.117V33.77L113.399 33.5649L113.365 33.5308L109.366 27.0195H106.529V33.2402L108.973 33.77V37H98.4624ZM129.104 37V33.77L131.736 33.2402V16.3384H127.532L127.31 19.1753H123.191V12.1172H145.818V19.1753H141.648L141.443 16.3384H137.205V33.2402L139.837 33.77V37H129.104ZM155.611 37V33.77L158.226 33.2402V15.894L155.611 15.3643V12.1172H158.226H166.463L172.872 29.002H172.974L179.212 12.1172H189.996V15.3643L187.364 15.894V33.2402L189.996 33.77V37H179.297V33.77L182.032 33.2402V29.1899L182.134 17.7397L182.032 17.7227L174.786 36.8291H170.564L163.182 17.9106L163.062 17.9277L163.421 28.5405V33.2402L166.326 33.77V37H155.611ZM191.431 37V33.77L194.063 33.2402V15.894L191.431 15.3643V12.1172H211.016V19.0557H206.863L206.675 16.3213H199.532V22.0293H207.718V26.2505H199.532V32.7959H207.034L207.222 29.959H211.341V37H191.431ZM213.956 43.1011L213.614 32.8301H215.459C216.063 32.363 216.61 31.7135 217.1 30.8818C217.59 30.0501 217.994 28.945 218.313 27.5664C218.632 26.1878 218.832 24.4447 218.912 22.3369L219.39 15.8599L217.032 15.3643V12.1172H238.804V15.3643L236.207 15.894V32.8301H239.009L238.497 43.1353H233.541V37H219.065V43.1011H213.956ZM221.697 32.8301H230.738V16.3042H224.808L224.415 22.3369C224.346 23.9775 224.192 25.4416 223.953 26.729C223.714 28.005 223.406 29.1444 223.03 30.147C222.654 31.1382 222.21 32.0326 221.697 32.8301ZM241.043 37V33.77L243.675 33.2402V15.894L241.043 15.3643V12.1172H243.675H249.109H251.741V15.3643L249.109 15.894V26.5752L249.212 26.6094L258.68 17.2271V15.894L256.065 15.3643V12.1172H258.68H264.183H266.78V15.3643L264.183 15.894V33.2402L266.78 33.77V37H256.065V33.77L258.68 33.2402V22.7642L258.577 22.73L249.109 32.1465V33.2402L251.741 33.77V37H241.043ZM268.37 37V33.77L270.967 33.2402V15.894L268.37 15.3643V12.1172H278.88V15.3643L276.436 15.894V21.978H278.538L282.93 15.6719C283.944 14.2477 284.896 13.2565 285.784 12.6982C286.673 12.14 287.653 11.8608 288.724 11.8608C289.384 11.8608 289.988 11.9463 290.535 12.1172C291.093 12.2767 291.583 12.4932 292.005 12.7666L291.065 16.9194C290.837 16.8511 290.632 16.7998 290.45 16.7656C290.267 16.7314 290.079 16.7144 289.886 16.7144C289.419 16.7144 288.929 16.8625 288.416 17.1587C287.915 17.4435 287.334 18.0189 286.673 18.8848L283.204 23.5845L289.681 33.3428L292.364 33.77V37H282.024V33.77L283.306 33.5649L283.272 33.5308L279.273 27.0195H276.436V33.2402L278.88 33.77V37H268.37ZM293.116 37V33.77L294.893 33.5137L302.566 12.1172H308.326L315.982 33.5137L317.742 33.77V37H308.89V33.77L310.564 33.4624L309.625 30.3862H301.233L300.328 33.4624L302.002 33.77V37H293.116ZM302.464 26.4556H308.394L305.728 18.3892L305.472 17.5859H305.369L305.096 18.4575L302.464 26.4556ZM319.383 37V32.8301H320.049C320.824 32.7503 321.462 32.5452 321.963 32.2148C322.465 31.8844 322.852 31.3717 323.125 30.6768C323.399 29.9704 323.593 29.0247 323.707 27.8398C323.82 26.6436 323.877 25.1396 323.877 23.3281L323.86 15.894L321.263 15.3643V12.1172H343.924V15.3643L341.309 15.894V33.2402L343.924 33.77V37H333.226V33.77L335.84 33.2402V16.3042H329.312L329.329 23.3281C329.329 25.7663 329.147 27.8512 328.782 29.583C328.429 31.3148 327.894 32.7275 327.176 33.8213C326.458 34.915 325.564 35.7183 324.493 36.231C323.422 36.7437 322.163 37 320.716 37H319.383ZM354.366 37V33.77L356.963 33.2402V15.894L354.366 15.3643V12.1172H373.455V18.6626H369.354L369.166 16.3042H362.432V33.2402L365.064 33.77V37H354.366ZM375.079 37V33.77L377.71 33.2402V15.894L375.079 15.3643V12.1172H377.71H387.042C388.99 12.1172 390.67 12.459 392.083 13.1426C393.507 13.8148 394.601 14.7604 395.364 15.9795C396.128 17.1872 396.509 18.5999 396.509 20.2178C396.509 21.8242 396.128 23.2313 395.364 24.439C394.601 25.6466 393.507 26.5866 392.083 27.2588C390.67 27.931 388.99 28.2671 387.042 28.2671H383.179V33.2402L385.794 33.77V37H375.079ZM383.179 24.063H387.042C388.363 24.063 389.36 23.7041 390.032 22.9863C390.704 22.2686 391.041 21.3571 391.041 20.252C391.041 19.1012 390.704 18.1556 390.032 17.415C389.36 16.6745 388.363 16.3042 387.042 16.3042H383.179V24.063ZM404.695 37.3589C404.41 37.3589 404.091 37.3475 403.738 37.3247C403.385 37.3133 403.106 37.3019 402.901 37.2905L402.833 33.1206C402.946 33.132 403.146 33.1491 403.431 33.1719C403.727 33.1833 403.949 33.189 404.097 33.189C405.031 33.189 405.738 32.9896 406.216 32.5908C406.706 32.1921 407.082 31.5996 407.344 30.8135L407.618 30.0273L400.508 15.7402L397.671 15.3643V12.1172H408.011V15.3643L406.25 15.6548L409.532 22.7471L409.942 23.7725H410.044L413.052 15.7231L411.463 15.3643V12.1172H421.17V15.3643L418.606 15.7061L411.685 32.0952C411.195 33.2004 410.643 34.1517 410.027 34.9492C409.424 35.7354 408.689 36.3335 407.823 36.7437C406.968 37.1538 405.926 37.3589 404.695 37.3589ZM422.417 37V33.77L425.015 33.2402V15.894L422.417 15.3643V12.1172H448.138V15.3643L445.54 15.894V33.2402L448.138 33.77V37H437.457V33.77L440.071 33.2402V16.3042H430.484V33.2402L433.116 33.77V37H422.417Z" fill="black"/>
<path d="M27.3906 62.7969V61.5938H31.2109V62.7969H27.3906ZM42.1797 67.1641C41.0391 67.1641 40.0859 66.9141 39.3203 66.4141C38.5599 65.9141 37.987 65.2292 37.6016 64.3594C37.2214 63.4896 37.0312 62.5026 37.0312 61.3984V61.2344C37.0312 60.1198 37.2318 59.1302 37.6328 58.2656C38.0339 57.3958 38.6094 56.7109 39.3594 56.2109C40.1094 55.7109 41.0052 55.4609 42.0469 55.4609C42.7812 55.4609 43.4531 55.5755 44.0625 55.8047C44.6719 56.0339 45.1771 56.3255 45.5781 56.6797V59.1328H44.3516L44.1875 57.3359C44.0208 57.2057 43.8281 57.0964 43.6094 57.0078C43.3958 56.9193 43.1562 56.8516 42.8906 56.8047C42.6302 56.7578 42.3464 56.7344 42.0391 56.7344C41.2943 56.7344 40.6641 56.9271 40.1484 57.3125C39.6328 57.6927 39.2422 58.2188 38.9766 58.8906C38.7109 59.5625 38.5781 60.3385 38.5781 61.2188V61.3984C38.5781 62.3516 38.7188 63.1667 39 63.8438C39.2865 64.5156 39.7005 65.0286 40.2422 65.3828C40.7891 65.737 41.4531 65.9141 42.2344 65.9141C42.599 65.9141 42.9557 65.8698 43.3047 65.7812C43.6536 65.6927 43.9427 65.5781 44.1719 65.4375L44.3438 63.8516H45.5469V66.3203C45.1198 66.5859 44.6094 66.7943 44.0156 66.9453C43.4219 67.0911 42.8099 67.1641 42.1797 67.1641ZM49.2812 67V66.0156L50.5547 65.7969V59.7422H48.7734L48.6562 61.0625H47.3438V58.5469H55.3438V61.0625H54.0234L53.9062 59.7422H52.0938V65.7969L53.3672 66.0156V67H49.2812ZM60.0703 67.1641C59.2891 67.1641 58.6146 66.9818 58.0469 66.6172C57.4844 66.2474 57.0495 65.7396 56.7422 65.0938C56.4349 64.4427 56.2812 63.7005 56.2812 62.8672V62.6953C56.2812 61.862 56.4349 61.1224 56.7422 60.4766C57.0495 59.8255 57.4844 59.3151 58.0469 58.9453C58.6146 58.5755 59.2839 58.3906 60.0547 58.3906C60.8359 58.3906 61.5078 58.5755 62.0703 58.9453C62.638 59.3151 63.0755 59.8229 63.3828 60.4688C63.6901 61.1146 63.8438 61.8568 63.8438 62.6953V62.8672C63.8438 63.7057 63.6901 64.4505 63.3828 65.1016C63.0755 65.7474 62.6406 66.2526 62.0781 66.6172C61.5156 66.9818 60.8464 67.1641 60.0703 67.1641ZM60.0703 65.9609C60.5599 65.9609 60.9688 65.8281 61.2969 65.5625C61.6302 65.2917 61.8802 64.9245 62.0469 64.4609C62.2188 63.9922 62.3047 63.4609 62.3047 62.8672V62.6953C62.3047 62.1016 62.2188 61.5729 62.0469 61.1094C61.8802 60.6406 61.6302 60.2734 61.2969 60.0078C60.9635 59.737 60.5495 59.6016 60.0547 59.6016C59.5651 59.6016 59.1536 59.737 58.8203 60.0078C58.487 60.2734 58.237 60.6406 58.0703 61.1094C57.9036 61.5729 57.8203 62.1016 57.8203 62.6953V62.8672C57.8203 63.4609 57.9036 63.9922 58.0703 64.4609C58.237 64.9245 58.487 65.2917 58.8203 65.5625C59.1589 65.8281 59.5755 65.9609 60.0703 65.9609ZM65.4141 67V66.0156L66.6875 65.7969V59.7578L65.4141 59.5391V58.5469H66.6875H68.6719L71.4219 64.9844H71.4688L74.2266 58.5469H76.1562H77.4297V59.5391L76.1562 59.7578V65.7969L77.4297 66.0156V67H73.3438V66.0156L74.6172 65.7969V61.1328L74.5703 61.1172L71.9766 67H70.9141L68.2734 60.9922L68.2266 61.0078V65.7969L69.5 66.0156V67H65.4141ZM81.4375 67.1641C80.5573 67.1641 79.888 66.9505 79.4297 66.5234C78.9714 66.0911 78.7422 65.4844 78.7422 64.7031C78.7422 64.1667 78.888 63.7005 79.1797 63.3047C79.4766 62.9036 79.9036 62.5938 80.4609 62.375C81.0182 62.151 81.6849 62.0391 82.4609 62.0391H83.9688V61.2109C83.9688 60.7005 83.8125 60.3047 83.5 60.0234C83.1927 59.7422 82.7578 59.6016 82.1953 59.6016C81.8411 59.6016 81.5339 59.6458 81.2734 59.7344C81.013 59.8177 80.776 59.9349 80.5625 60.0859L80.3984 61.2656H79.2109V59.3281C79.5911 59.0208 80.0339 58.7891 80.5391 58.6328C81.0443 58.4714 81.6042 58.3906 82.2188 58.3906C83.2448 58.3906 84.0495 58.6354 84.6328 59.125C85.2161 59.6146 85.5078 60.3151 85.5078 61.2266V65.2969C85.5078 65.4062 85.5078 65.513 85.5078 65.6172C85.513 65.7214 85.5208 65.8255 85.5312 65.9297L86.3516 66.0156V67H84.1406C84.0938 66.7708 84.0573 66.5651 84.0312 66.3828C84.0052 66.2005 83.987 66.0182 83.9766 65.8359C83.6797 66.2161 83.3073 66.5339 82.8594 66.7891C82.4167 67.0391 81.9427 67.1641 81.4375 67.1641ZM81.6641 65.875C82.1745 65.875 82.6406 65.7526 83.0625 65.5078C83.4844 65.263 83.7865 64.9688 83.9688 64.625V63.0938H82.4062C81.6979 63.0938 81.1667 63.263 80.8125 63.6016C80.4583 63.9401 80.2812 64.3177 80.2812 64.7344C80.2812 65.1042 80.3958 65.388 80.625 65.5859C80.8542 65.7786 81.2005 65.875 81.6641 65.875ZM89.3906 67V66.0156L90.6641 65.7969V59.7422H88.8828L88.7656 61.0625H87.4531V58.5469H95.4531V61.0625H94.1328L94.0156 59.7422H92.2031V65.7969L93.4766 66.0156V67H89.3906ZM100.18 67.1641C99.3984 67.1641 98.724 66.9818 98.1562 66.6172C97.5938 66.2474 97.1589 65.7396 96.8516 65.0938C96.5443 64.4427 96.3906 63.7005 96.3906 62.8672V62.6953C96.3906 61.862 96.5443 61.1224 96.8516 60.4766C97.1589 59.8255 97.5938 59.3151 98.1562 58.9453C98.724 58.5755 99.3932 58.3906 100.164 58.3906C100.945 58.3906 101.617 58.5755 102.18 58.9453C102.747 59.3151 103.185 59.8229 103.492 60.4688C103.799 61.1146 103.953 61.8568 103.953 62.6953V62.8672C103.953 63.7057 103.799 64.4505 103.492 65.1016C103.185 65.7474 102.75 66.2526 102.188 66.6172C101.625 66.9818 100.956 67.1641 100.18 67.1641ZM100.18 65.9609C100.669 65.9609 101.078 65.8281 101.406 65.5625C101.74 65.2917 101.99 64.9245 102.156 64.4609C102.328 63.9922 102.414 63.4609 102.414 62.8672V62.6953C102.414 62.1016 102.328 61.5729 102.156 61.1094C101.99 60.6406 101.74 60.2734 101.406 60.0078C101.073 59.737 100.659 59.6016 100.164 59.6016C99.6745 59.6016 99.263 59.737 98.9297 60.0078C98.5964 60.2734 98.3464 60.6406 98.1797 61.1094C98.013 61.5729 97.9297 62.1016 97.9297 62.6953V62.8672C97.9297 63.4609 98.013 63.9922 98.1797 64.4609C98.3464 64.9245 98.5964 65.2917 98.9297 65.5625C99.2682 65.8281 99.6849 65.9609 100.18 65.9609ZM105.18 67L105.203 65.6875L105.523 65.6797C105.893 65.6797 106.185 65.5651 106.398 65.3359C106.612 65.1016 106.766 64.7266 106.859 64.2109C106.953 63.6901 107 63.0052 107 62.1562V59.7578L105.727 59.5391V58.5469H112.945H114.219V59.5391L112.945 59.7578V65.7969L114.219 66.0156V67H110.133V66.0156L111.406 65.7969V59.7656H108.539V62.1562C108.539 63.8229 108.318 65.0469 107.875 65.8281C107.438 66.6094 106.685 67 105.617 67H105.18ZM119.32 67.1641C118.539 67.1641 117.865 66.9818 117.297 66.6172C116.734 66.2474 116.299 65.7396 115.992 65.0938C115.685 64.4427 115.531 63.7005 115.531 62.8672V62.6953C115.531 61.862 115.685 61.1224 115.992 60.4766C116.299 59.8255 116.734 59.3151 117.297 58.9453C117.865 58.5755 118.534 58.3906 119.305 58.3906C120.086 58.3906 120.758 58.5755 121.32 58.9453C121.888 59.3151 122.326 59.8229 122.633 60.4688C122.94 61.1146 123.094 61.8568 123.094 62.6953V62.8672C123.094 63.7057 122.94 64.4505 122.633 65.1016C122.326 65.7474 121.891 66.2526 121.328 66.6172C120.766 66.9818 120.096 67.1641 119.32 67.1641ZM119.32 65.9609C119.81 65.9609 120.219 65.8281 120.547 65.5625C120.88 65.2917 121.13 64.9245 121.297 64.4609C121.469 63.9922 121.555 63.4609 121.555 62.8672V62.6953C121.555 62.1016 121.469 61.5729 121.297 61.1094C121.13 60.6406 120.88 60.2734 120.547 60.0078C120.214 59.737 119.799 59.6016 119.305 59.6016C118.815 59.6016 118.404 59.737 118.07 60.0078C117.737 60.2734 117.487 60.6406 117.32 61.1094C117.154 61.5729 117.07 62.1016 117.07 62.6953V62.8672C117.07 63.4609 117.154 63.9922 117.32 64.4609C117.487 64.9245 117.737 65.2917 118.07 65.5625C118.409 65.8281 118.826 65.9609 119.32 65.9609ZM124.469 67V66.0156L125.742 65.7969V59.7578L124.469 59.5391V58.5469H131.367V60.7266H130.367L130.258 59.7656H127.281V65.7969L128.555 66.0156V67H124.469ZM133.07 67V66.0156L134.344 65.7969V59.7578L133.07 59.5391V58.5469H135.875H137.148V59.5391L135.875 59.7578V64.5312L135.922 64.5469L139.648 58.5469H141.188H142.461V59.5391L141.188 59.7578V65.7969L142.461 66.0156V67H138.375V66.0156L139.648 65.7969V61.0156L139.602 61L135.875 67H133.07ZM148.906 67V66.0156L150.18 65.7969V63.9844C149.878 64.0625 149.57 64.1198 149.258 64.1562C148.945 64.1927 148.615 64.2109 148.266 64.2109C147.583 64.2109 146.997 64.0911 146.508 63.8516C146.023 63.612 145.651 63.2578 145.391 62.7891C145.13 62.3151 145 61.7266 145 61.0234V59.7422L143.727 59.5234V58.5391H146.539H147.812V59.5234L146.539 59.7422V61.0234C146.539 61.4766 146.602 61.849 146.727 62.1406C146.857 62.4271 147.049 62.6406 147.305 62.7812C147.565 62.9219 147.885 62.9922 148.266 62.9922C148.609 62.9922 148.938 62.974 149.25 62.9375C149.562 62.8958 149.872 62.8359 150.18 62.7578V59.7578L148.906 59.5391V58.5469H152.992V59.5391L151.719 59.7578V65.7969L152.992 66.0156V67H148.906ZM158.242 67.1641C157.461 67.1641 156.781 66.987 156.203 66.6328C155.625 66.2734 155.177 65.776 154.859 65.1406C154.547 64.5052 154.391 63.7708 154.391 62.9375V62.5938C154.391 61.7917 154.555 61.0755 154.883 60.4453C155.216 59.8099 155.656 59.3099 156.203 58.9453C156.755 58.5755 157.357 58.3906 158.008 58.3906C158.768 58.3906 159.404 58.5469 159.914 58.8594C160.43 59.1719 160.818 59.612 161.078 60.1797C161.339 60.7422 161.469 61.4062 161.469 62.1719V63.1328H155.984L155.961 63.1719C155.971 63.7135 156.065 64.1953 156.242 64.6172C156.424 65.0339 156.685 65.362 157.023 65.6016C157.362 65.8411 157.768 65.9609 158.242 65.9609C158.763 65.9609 159.219 65.888 159.609 65.7422C160.005 65.5911 160.346 65.3854 160.633 65.125L161.234 66.125C160.932 66.4167 160.531 66.6641 160.031 66.8672C159.536 67.0651 158.94 67.1641 158.242 67.1641ZM156.031 61.9297H159.93V61.7266C159.93 61.3203 159.857 60.9583 159.711 60.6406C159.57 60.3177 159.357 60.0651 159.07 59.8828C158.789 59.6953 158.435 59.6016 158.008 59.6016C157.664 59.6016 157.352 59.7031 157.07 59.9062C156.789 60.1042 156.557 60.375 156.375 60.7188C156.193 61.0625 156.073 61.4531 156.016 61.8906L156.031 61.9297ZM166.805 67.1641C166.039 67.1641 165.372 66.987 164.805 66.6328C164.237 66.2734 163.797 65.776 163.484 65.1406C163.172 64.5052 163.016 63.7708 163.016 62.9375V62.6094C163.016 61.8073 163.167 61.0885 163.469 60.4531C163.771 59.8177 164.206 59.3151 164.773 58.9453C165.341 58.5755 166.018 58.3906 166.805 58.3906C167.487 58.3906 168.083 58.5026 168.594 58.7266C169.109 58.9505 169.542 59.2578 169.891 59.6484L169.93 61.6797H168.727L168.461 60.2031C168.284 60.0208 168.062 59.875 167.797 59.7656C167.531 59.6562 167.219 59.6016 166.859 59.6016C166.401 59.6016 165.997 59.737 165.648 60.0078C165.305 60.2786 165.036 60.6406 164.844 61.0938C164.651 61.5469 164.555 62.0521 164.555 62.6094V62.9375C164.555 63.5521 164.643 64.0859 164.82 64.5391C165.003 64.9922 165.26 65.3438 165.594 65.5938C165.932 65.8385 166.333 65.9609 166.797 65.9609C167.318 65.9609 167.75 65.8177 168.094 65.5312C168.438 65.2448 168.648 64.8516 168.727 64.3516H170.109L170.125 64.3984C170.099 64.8828 169.956 65.3359 169.695 65.7578C169.435 66.1797 169.062 66.5208 168.578 66.7812C168.099 67.0365 167.508 67.1641 166.805 67.1641ZM171.508 67V66.0156L172.781 65.7969V59.7578L171.508 59.5391V58.5469H175.594V59.5391L174.32 59.7578V62.1172H175.133L176.898 59.75C177.216 59.3073 177.526 58.9714 177.828 58.7422C178.135 58.513 178.479 58.3984 178.859 58.3984C179.099 58.3984 179.297 58.4297 179.453 58.4922C179.609 58.5495 179.786 58.6406 179.984 58.7656L179.766 59.8125C179.542 59.776 179.411 59.7552 179.375 59.75C179.344 59.7448 179.276 59.7422 179.172 59.7422C178.979 59.7422 178.789 59.8125 178.602 59.9531C178.419 60.0938 178.258 60.2604 178.117 60.4531L176.484 62.5703L179.148 65.8203L180.234 66.0156V67H178.18L175.32 63.4141H174.32V65.7969L175.594 66.0156V67H171.508ZM183.938 67.1641C183.057 67.1641 182.388 66.9505 181.93 66.5234C181.471 66.0911 181.242 65.4844 181.242 64.7031C181.242 64.1667 181.388 63.7005 181.68 63.3047C181.977 62.9036 182.404 62.5938 182.961 62.375C183.518 62.151 184.185 62.0391 184.961 62.0391H186.469V61.2109C186.469 60.7005 186.312 60.3047 186 60.0234C185.693 59.7422 185.258 59.6016 184.695 59.6016C184.341 59.6016 184.034 59.6458 183.773 59.7344C183.513 59.8177 183.276 59.9349 183.062 60.0859L182.898 61.2656H181.711V59.3281C182.091 59.0208 182.534 58.7891 183.039 58.6328C183.544 58.4714 184.104 58.3906 184.719 58.3906C185.745 58.3906 186.549 58.6354 187.133 59.125C187.716 59.6146 188.008 60.3151 188.008 61.2266V65.2969C188.008 65.4062 188.008 65.513 188.008 65.6172C188.013 65.7214 188.021 65.8255 188.031 65.9297L188.852 66.0156V67H186.641C186.594 66.7708 186.557 66.5651 186.531 66.3828C186.505 66.2005 186.487 66.0182 186.477 65.8359C186.18 66.2161 185.807 66.5339 185.359 66.7891C184.917 67.0391 184.443 67.1641 183.938 67.1641ZM184.164 65.875C184.674 65.875 185.141 65.7526 185.562 65.5078C185.984 65.263 186.286 64.9688 186.469 64.625V63.0938H184.906C184.198 63.0938 183.667 63.263 183.312 63.6016C182.958 63.9401 182.781 64.3177 182.781 64.7344C182.781 65.1042 182.896 65.388 183.125 65.5859C183.354 65.7786 183.701 65.875 184.164 65.875ZM189.977 67V66.0156L191.086 65.8516L192.531 63.4922C191.995 63.2995 191.581 62.9948 191.289 62.5781C191.003 62.1615 190.859 61.6797 190.859 61.1328C190.859 60.6276 190.99 60.1797 191.25 59.7891C191.51 59.3984 191.883 59.0938 192.367 58.875C192.852 58.6562 193.43 58.5469 194.102 58.5469H198.945V59.5391L197.672 59.7578V65.7969L198.945 66.0156V67H194.859V66.0156L196.133 65.7969V63.7188H194.047L192.047 67H189.977ZM193.945 62.5078H196.133V59.7422H194.102C193.544 59.7422 193.122 59.8828 192.836 60.1641C192.549 60.4401 192.406 60.7682 192.406 61.1484C192.406 61.5234 192.534 61.8438 192.789 62.1094C193.049 62.375 193.435 62.5078 193.945 62.5078ZM204.383 67V66.0156L205.656 65.7969V59.7578L204.383 59.5391V58.5469H208.469V59.5391L207.195 59.7578V62.1172H208.008L209.773 59.75C210.091 59.3073 210.401 58.9714 210.703 58.7422C211.01 58.513 211.354 58.3984 211.734 58.3984C211.974 58.3984 212.172 58.4297 212.328 58.4922C212.484 58.5495 212.661 58.6406 212.859 58.7656L212.641 59.8125C212.417 59.776 212.286 59.7552 212.25 59.75C212.219 59.7448 212.151 59.7422 212.047 59.7422C211.854 59.7422 211.664 59.8125 211.477 59.9531C211.294 60.0938 211.133 60.2604 210.992 60.4531L209.359 62.5703L212.023 65.8203L213.109 66.0156V67H211.055L208.195 63.4141H207.195V65.7969L208.469 66.0156V67H204.383ZM214.039 67L214.062 65.6875L214.383 65.6797C214.753 65.6797 215.044 65.5651 215.258 65.3359C215.471 65.1016 215.625 64.7266 215.719 64.2109C215.812 63.6901 215.859 63.0052 215.859 62.1562V59.7578L214.586 59.5391V58.5469H221.805H223.078V59.5391L221.805 59.7578V65.7969L223.078 66.0156V67H218.992V66.0156L220.266 65.7969V59.7656H217.398V62.1562C217.398 63.8229 217.177 65.0469 216.734 65.8281C216.297 66.6094 215.544 67 214.477 67H214.039ZM224.539 67V66.0156L225.812 65.7969V59.7578L224.539 59.5391V58.5469H227.344H228.617V59.5391L227.344 59.7578V64.5312L227.391 64.5469L231.117 58.5469H232.656H233.93V59.5391L232.656 59.7578V65.7969L233.93 66.0156V67H229.844V66.0156L231.117 65.7969V61.0156L231.07 61L227.344 67H224.539ZM235.445 67V66.0156L236.719 65.7969V59.7578L235.445 59.5391V58.5469H239.531V59.5391L238.258 59.7578V62.2031H242.016V59.7578L240.742 59.5391V58.5469H242.016H243.562H244.836V59.5391L243.562 59.7578V65.7969L244.836 66.0156V67H240.742V66.0156L242.016 65.7969V63.4062H238.258V65.7969L239.531 66.0156V67H235.445ZM246.352 67V66.0156L247.625 65.7969V59.7578L246.352 59.5391V58.5469H249.156H250.43V59.5391L249.156 59.7578V64.5312L249.203 64.5469L252.93 58.5469H254.469H255.742V59.5391L254.469 59.7578V65.7969L255.742 66.0156V67H251.656V66.0156L252.93 65.7969V61.0156L252.883 61L249.156 67H246.352ZM257.258 67V66.0156L258.531 65.7969V59.7578L257.258 59.5391V58.5469H261.344V59.5391L260.07 59.7578V62.1172H260.883L262.648 59.75C262.966 59.3073 263.276 58.9714 263.578 58.7422C263.885 58.513 264.229 58.3984 264.609 58.3984C264.849 58.3984 265.047 58.4297 265.203 58.4922C265.359 58.5495 265.536 58.6406 265.734 58.7656L265.516 59.8125C265.292 59.776 265.161 59.7552 265.125 59.75C265.094 59.7448 265.026 59.7422 264.922 59.7422C264.729 59.7422 264.539 59.8125 264.352 59.9531C264.169 60.0938 264.008 60.2604 263.867 60.4531L262.234 62.5703L264.898 65.8203L265.984 66.0156V67H263.93L261.07 63.4141H260.07V65.7969L261.344 66.0156V67H257.258ZM269.688 67.1641C268.807 67.1641 268.138 66.9505 267.68 66.5234C267.221 66.0911 266.992 65.4844 266.992 64.7031C266.992 64.1667 267.138 63.7005 267.43 63.3047C267.727 62.9036 268.154 62.5938 268.711 62.375C269.268 62.151 269.935 62.0391 270.711 62.0391H272.219V61.2109C272.219 60.7005 272.062 60.3047 271.75 60.0234C271.443 59.7422 271.008 59.6016 270.445 59.6016C270.091 59.6016 269.784 59.6458 269.523 59.7344C269.263 59.8177 269.026 59.9349 268.812 60.0859L268.648 61.2656H267.461V59.3281C267.841 59.0208 268.284 58.7891 268.789 58.6328C269.294 58.4714 269.854 58.3906 270.469 58.3906C271.495 58.3906 272.299 58.6354 272.883 59.125C273.466 59.6146 273.758 60.3151 273.758 61.2266V65.2969C273.758 65.4062 273.758 65.513 273.758 65.6172C273.763 65.7214 273.771 65.8255 273.781 65.9297L274.602 66.0156V67H272.391C272.344 66.7708 272.307 66.5651 272.281 66.3828C272.255 66.2005 272.237 66.0182 272.227 65.8359C271.93 66.2161 271.557 66.5339 271.109 66.7891C270.667 67.0391 270.193 67.1641 269.688 67.1641ZM269.914 65.875C270.424 65.875 270.891 65.7526 271.312 65.5078C271.734 65.263 272.036 64.9688 272.219 64.625V63.0938H270.656C269.948 63.0938 269.417 63.263 269.062 63.6016C268.708 63.9401 268.531 64.3177 268.531 64.7344C268.531 65.1042 268.646 65.388 268.875 65.5859C269.104 65.7786 269.451 65.875 269.914 65.875ZM279.961 67V66.0156L281.234 65.7969V59.7578L279.961 59.5391V58.5469H281.234H284.562C285.677 58.5469 286.542 58.7422 287.156 59.1328C287.771 59.5182 288.078 60.099 288.078 60.875C288.078 61.2708 287.958 61.625 287.719 61.9375C287.479 62.2448 287.141 62.4792 286.703 62.6406C287.229 62.7708 287.641 63.0156 287.938 63.375C288.234 63.7292 288.383 64.1354 288.383 64.5938C288.383 65.3854 288.094 65.9844 287.516 66.3906C286.943 66.7969 286.138 67 285.102 67H279.961ZM282.773 65.8125H285.102C285.674 65.8125 286.107 65.7057 286.398 65.4922C286.69 65.2734 286.836 64.9609 286.836 64.5547C286.836 64.1536 286.69 63.8438 286.398 63.625C286.107 63.4062 285.674 63.2969 285.102 63.2969H282.773V65.8125ZM282.773 62.1172H284.57C285.221 62.1172 285.711 62.0208 286.039 61.8281C286.372 61.6354 286.539 61.3438 286.539 60.9531C286.539 60.1458 285.88 59.7422 284.562 59.7422H282.773V62.1172ZM293.68 67V66.0156L294.953 65.7969V56.8359L293.68 56.6172V55.625H297.766V56.6172L296.492 56.8359V60.75H297.734L300.305 57.0469C300.727 56.4635 301.094 56.0677 301.406 55.8594C301.719 55.6458 302.081 55.5391 302.492 55.5391C302.737 55.5391 302.943 55.5703 303.109 55.6328C303.281 55.6901 303.461 55.776 303.648 55.8906L303.422 56.9766C303.281 56.9505 303.156 56.9297 303.047 56.9141C302.943 56.8932 302.839 56.8828 302.734 56.8828C302.49 56.8828 302.281 56.9479 302.109 57.0781C301.943 57.2083 301.747 57.4297 301.523 57.7422L299.078 61.1484L302.859 65.8203L303.93 66.0156V67H300.195V66.0156L301.062 65.9062L301.031 65.8672L297.961 62.0469H296.492V65.7969L297.766 66.0156V67H293.68ZM304.625 70.25V69.2578L305.82 69.0391V59.7578L304.547 59.5391V58.5469H307.141L307.281 59.5781C307.562 59.1927 307.904 58.8984 308.305 58.6953C308.711 58.4922 309.18 58.3906 309.711 58.3906C310.409 58.3906 311.005 58.5807 311.5 58.9609C311.995 59.3359 312.372 59.8646 312.633 60.5469C312.893 61.224 313.023 62.0182 313.023 62.9297V63.0938C313.023 63.9062 312.891 64.6172 312.625 65.2266C312.365 65.8359 311.99 66.3125 311.5 66.6562C311.01 66.9948 310.422 67.1641 309.734 67.1641C309.214 67.1641 308.755 67.0781 308.359 66.9062C307.969 66.7292 307.635 66.4688 307.359 66.125V69.0391L308.703 69.2578V70.25H304.625ZM309.258 65.9609C309.987 65.9609 310.539 65.6953 310.914 65.1641C311.289 64.6328 311.477 63.9427 311.477 63.0938V62.9297C311.477 62.2839 311.393 61.7161 311.227 61.2266C311.06 60.7318 310.81 60.3438 310.477 60.0625C310.148 59.7812 309.737 59.6406 309.242 59.6406C308.805 59.6406 308.43 59.7396 308.117 59.9375C307.805 60.1354 307.552 60.4062 307.359 60.75V64.8672C307.552 65.2161 307.802 65.487 308.109 65.6797C308.422 65.8672 308.805 65.9609 309.258 65.9609ZM317.281 67.1641C316.401 67.1641 315.732 66.9505 315.273 66.5234C314.815 66.0911 314.586 65.4844 314.586 64.7031C314.586 64.1667 314.732 63.7005 315.023 63.3047C315.32 62.9036 315.747 62.5938 316.305 62.375C316.862 62.151 317.529 62.0391 318.305 62.0391H319.812V61.2109C319.812 60.7005 319.656 60.3047 319.344 60.0234C319.036 59.7422 318.602 59.6016 318.039 59.6016C317.685 59.6016 317.378 59.6458 317.117 59.7344C316.857 59.8177 316.62 59.9349 316.406 60.0859L316.242 61.2656H315.055V59.3281C315.435 59.0208 315.878 58.7891 316.383 58.6328C316.888 58.4714 317.448 58.3906 318.062 58.3906C319.089 58.3906 319.893 58.6354 320.477 59.125C321.06 59.6146 321.352 60.3151 321.352 61.2266V65.2969C321.352 65.4062 321.352 65.513 321.352 65.6172C321.357 65.7214 321.365 65.8255 321.375 65.9297L322.195 66.0156V67H319.984C319.938 66.7708 319.901 66.5651 319.875 66.3828C319.849 66.2005 319.831 66.0182 319.82 65.8359C319.523 66.2161 319.151 66.5339 318.703 66.7891C318.26 67.0391 317.786 67.1641 317.281 67.1641ZM317.508 65.875C318.018 65.875 318.484 65.7526 318.906 65.5078C319.328 65.263 319.63 64.9688 319.812 64.625V63.0938H318.25C317.542 63.0938 317.01 63.263 316.656 63.6016C316.302 63.9401 316.125 64.3177 316.125 64.7344C316.125 65.1042 316.24 65.388 316.469 65.5859C316.698 65.7786 317.044 65.875 317.508 65.875ZM327.211 67.1641C326.445 67.1641 325.779 66.987 325.211 66.6328C324.643 66.2734 324.203 65.776 323.891 65.1406C323.578 64.5052 323.422 63.7708 323.422 62.9375V62.6094C323.422 61.8073 323.573 61.0885 323.875 60.4531C324.177 59.8177 324.612 59.3151 325.18 58.9453C325.747 58.5755 326.424 58.3906 327.211 58.3906C327.893 58.3906 328.49 58.5026 329 58.7266C329.516 58.9505 329.948 59.2578 330.297 59.6484L330.336 61.6797H329.133L328.867 60.2031C328.69 60.0208 328.469 59.875 328.203 59.7656C327.938 59.6562 327.625 59.6016 327.266 59.6016C326.807 59.6016 326.404 59.737 326.055 60.0078C325.711 60.2786 325.443 60.6406 325.25 61.0938C325.057 61.5469 324.961 62.0521 324.961 62.6094V62.9375C324.961 63.5521 325.049 64.0859 325.227 64.5391C325.409 64.9922 325.667 65.3438 326 65.5938C326.339 65.8385 326.74 65.9609 327.203 65.9609C327.724 65.9609 328.156 65.8177 328.5 65.5312C328.844 65.2448 329.055 64.8516 329.133 64.3516H330.516L330.531 64.3984C330.505 64.8828 330.362 65.3359 330.102 65.7578C329.841 66.1797 329.469 66.5208 328.984 66.7812C328.505 67.0365 327.914 67.1641 327.211 67.1641ZM331.914 67V66.0156L333.188 65.7969V59.7578L331.914 59.5391V58.5469H336V59.5391L334.727 59.7578V62.2031H338.484V59.7578L337.211 59.5391V58.5469H338.484H340.031H341.305V59.5391L340.031 59.7578V65.7969L341.305 66.0156V67H337.211V66.0156L338.484 65.7969V63.4062H334.727V65.7969L336 66.0156V67H331.914ZM346.461 67.1641C345.68 67.1641 345.005 66.9818 344.438 66.6172C343.875 66.2474 343.44 65.7396 343.133 65.0938C342.826 64.4427 342.672 63.7005 342.672 62.8672V62.6953C342.672 61.862 342.826 61.1224 343.133 60.4766C343.44 59.8255 343.875 59.3151 344.438 58.9453C345.005 58.5755 345.674 58.3906 346.445 58.3906C347.227 58.3906 347.898 58.5755 348.461 58.9453C349.029 59.3151 349.466 59.8229 349.773 60.4688C350.081 61.1146 350.234 61.8568 350.234 62.6953V62.8672C350.234 63.7057 350.081 64.4505 349.773 65.1016C349.466 65.7474 349.031 66.2526 348.469 66.6172C347.906 66.9818 347.237 67.1641 346.461 67.1641ZM346.461 65.9609C346.951 65.9609 347.359 65.8281 347.688 65.5625C348.021 65.2917 348.271 64.9245 348.438 64.4609C348.609 63.9922 348.695 63.4609 348.695 62.8672V62.6953C348.695 62.1016 348.609 61.5729 348.438 61.1094C348.271 60.6406 348.021 60.2734 347.688 60.0078C347.354 59.737 346.94 59.6016 346.445 59.6016C345.956 59.6016 345.544 59.737 345.211 60.0078C344.878 60.2734 344.628 60.6406 344.461 61.1094C344.294 61.5729 344.211 62.1016 344.211 62.6953V62.8672C344.211 63.4609 344.294 63.9922 344.461 64.4609C344.628 64.9245 344.878 65.2917 345.211 65.5625C345.549 65.8281 345.966 65.9609 346.461 65.9609ZM351.555 67V66.0156L352.664 65.8516L354.109 63.4922C353.573 63.2995 353.159 62.9948 352.867 62.5781C352.581 62.1615 352.438 61.6797 352.438 61.1328C352.438 60.6276 352.568 60.1797 352.828 59.7891C353.089 59.3984 353.461 59.0938 353.945 58.875C354.43 58.6562 355.008 58.5469 355.68 58.5469H360.523V59.5391L359.25 59.7578V65.7969L360.523 66.0156V67H356.438V66.0156L357.711 65.7969V63.7188H355.625L353.625 67H351.555ZM355.523 62.5078H357.711V59.7422H355.68C355.122 59.7422 354.701 59.8828 354.414 60.1641C354.128 60.4401 353.984 60.7682 353.984 61.1484C353.984 61.5234 354.112 61.8438 354.367 62.1094C354.628 62.375 355.013 62.5078 355.523 62.5078ZM361.562 70.25V69.2578L362.758 69.0391V59.7578L361.484 59.5391V58.5469H364.078L364.219 59.5781C364.5 59.1927 364.841 58.8984 365.242 58.6953C365.648 58.4922 366.117 58.3906 366.648 58.3906C367.346 58.3906 367.943 58.5807 368.438 58.9609C368.932 59.3359 369.31 59.8646 369.57 60.5469C369.831 61.224 369.961 62.0182 369.961 62.9297V63.0938C369.961 63.9062 369.828 64.6172 369.562 65.2266C369.302 65.8359 368.927 66.3125 368.438 66.6562C367.948 66.9948 367.359 67.1641 366.672 67.1641C366.151 67.1641 365.693 67.0781 365.297 66.9062C364.906 66.7292 364.573 66.4688 364.297 66.125V69.0391L365.641 69.2578V70.25H361.562ZM366.195 65.9609C366.924 65.9609 367.477 65.6953 367.852 65.1641C368.227 64.6328 368.414 63.9427 368.414 63.0938V62.9297C368.414 62.2839 368.331 61.7161 368.164 61.2266C367.997 60.7318 367.747 60.3438 367.414 60.0625C367.086 59.7812 366.674 59.6406 366.18 59.6406C365.742 59.6406 365.367 59.7396 365.055 59.9375C364.742 60.1354 364.49 60.4062 364.297 60.75V64.8672C364.49 65.2161 364.74 65.487 365.047 65.6797C365.359 65.8672 365.742 65.9609 366.195 65.9609ZM375.617 67.1641C374.852 67.1641 374.185 66.987 373.617 66.6328C373.049 66.2734 372.609 65.776 372.297 65.1406C371.984 64.5052 371.828 63.7708 371.828 62.9375V62.6094C371.828 61.8073 371.979 61.0885 372.281 60.4531C372.583 59.8177 373.018 59.3151 373.586 58.9453C374.154 58.5755 374.831 58.3906 375.617 58.3906C376.299 58.3906 376.896 58.5026 377.406 58.7266C377.922 58.9505 378.354 59.2578 378.703 59.6484L378.742 61.6797H377.539L377.273 60.2031C377.096 60.0208 376.875 59.875 376.609 59.7656C376.344 59.6562 376.031 59.6016 375.672 59.6016C375.214 59.6016 374.81 59.737 374.461 60.0078C374.117 60.2786 373.849 60.6406 373.656 61.0938C373.464 61.5469 373.367 62.0521 373.367 62.6094V62.9375C373.367 63.5521 373.456 64.0859 373.633 64.5391C373.815 64.9922 374.073 65.3438 374.406 65.5938C374.745 65.8385 375.146 65.9609 375.609 65.9609C376.13 65.9609 376.562 65.8177 376.906 65.5312C377.25 65.2448 377.461 64.8516 377.539 64.3516H378.922L378.938 64.3984C378.911 64.8828 378.768 65.3359 378.508 65.7578C378.247 66.1797 377.875 66.5208 377.391 66.7812C376.911 67.0365 376.32 67.1641 375.617 67.1641ZM380.32 67V66.0156L381.594 65.7969V59.7578L380.32 59.5391V58.5469H384.406V59.5391L383.133 59.7578V62.1172H383.945L385.711 59.75C386.029 59.3073 386.339 58.9714 386.641 58.7422C386.948 58.513 387.292 58.3984 387.672 58.3984C387.911 58.3984 388.109 58.4297 388.266 58.4922C388.422 58.5495 388.599 58.6406 388.797 58.7656L388.578 59.8125C388.354 59.776 388.224 59.7552 388.188 59.75C388.156 59.7448 388.089 59.7422 387.984 59.7422C387.792 59.7422 387.602 59.8125 387.414 59.9531C387.232 60.0938 387.07 60.2604 386.93 60.4531L385.297 62.5703L387.961 65.8203L389.047 66.0156V67H386.992L384.133 63.4141H383.133V65.7969L384.406 66.0156V67H380.32ZM393.742 67.1641C392.961 67.1641 392.281 66.987 391.703 66.6328C391.125 66.2734 390.677 65.776 390.359 65.1406C390.047 64.5052 389.891 63.7708 389.891 62.9375V62.5938C389.891 61.7917 390.055 61.0755 390.383 60.4453C390.716 59.8099 391.156 59.3099 391.703 58.9453C392.255 58.5755 392.857 58.3906 393.508 58.3906C394.268 58.3906 394.904 58.5469 395.414 58.8594C395.93 59.1719 396.318 59.612 396.578 60.1797C396.839 60.7422 396.969 61.4062 396.969 62.1719V63.1328H391.484L391.461 63.1719C391.471 63.7135 391.565 64.1953 391.742 64.6172C391.924 65.0339 392.185 65.362 392.523 65.6016C392.862 65.8411 393.268 65.9609 393.742 65.9609C394.263 65.9609 394.719 65.888 395.109 65.7422C395.505 65.5911 395.846 65.3854 396.133 65.125L396.734 66.125C396.432 66.4167 396.031 66.6641 395.531 66.8672C395.036 67.0651 394.44 67.1641 393.742 67.1641ZM391.531 61.9297H395.43V61.7266C395.43 61.3203 395.357 60.9583 395.211 60.6406C395.07 60.3177 394.857 60.0651 394.57 59.8828C394.289 59.6953 393.935 59.6016 393.508 59.6016C393.164 59.6016 392.852 59.7031 392.57 59.9062C392.289 60.1042 392.057 60.375 391.875 60.7188C391.693 61.0625 391.573 61.4531 391.516 61.8906L391.531 61.9297ZM402.781 62.7969V61.5938H406.602V62.7969H402.781Z" fill="black"/>
</svg>
