<?xml version="1.0" encoding="utf-8"?><svg viewBox="0 0 40 40" xmlns="http://www.w3.org/2000/svg" xmlns:xlink="http://www.w3.org/1999/xlink"><style>:root>svg{display:none}:root>svg:target{display:block}</style><svg fill="none" viewBox="0 0 40 40" id="adv-equip" xmlns="http://www.w3.org/2000/svg"><path d="M4.995 18.795a.81.81 0 01-.72-.435L.095 10.397A.81.81 0 01.435 9.3l1.685-.885c.39-.207.824-.31 1.284-.31 1.639 0 3.377 1.297 4.431 3.306.63 1.197.924 2.493.83 3.647-.106 1.29-.677 2.27-1.608 2.758l-1.684.886a.82.82 0 01-.378.093zM1.91 10.36l3.426 6.524.966-.507c.566-.298.708-1.037.743-1.451.068-.838-.168-1.844-.648-2.759-.88-1.674-2.167-2.437-2.993-2.437-.195 0-.373.042-.528.123l-.966.507z" fill="currentColor"/><path d="M13.203 23.5a.81.81 0 01-.574-.239l-6-6a.813.813 0 111.15-1.15l6 6a.813.813 0 01-.576 1.388zM13.003 26.886a.81.81 0 01-.574-.238l-8.05-8.05a.813.813 0 111.15-1.15l8.05 8.05a.813.813 0 01-.576 1.388z" fill="currentColor"/><path d="M27.643 27.21h-14.44a.813.813 0 01-.813-.813V22.84c0-.45.366-.813.813-.813h14.44c.45 0 .813.364.813.813v3.557c0 .45-.363.813-.813.813zm-13.627-1.626H26.83v-1.93H14.016v1.93z" fill="currentColor"/><path d="M37.874 35.34a2.11 2.11 0 01-1.364-.495l-9.392-7.951a.813.813 0 011.05-1.242l9.39 7.95a.499.499 0 00.639-.767l-11.043-9.332a.813.813 0 011.05-1.243l11.04 9.331a2.122 2.122 0 01-1.37 3.749z" fill="currentColor"/><path d="M25.023 34.688h-9.2a.812.812 0 01-.767-.543l-2.62-7.478a.815.815 0 01.767-1.083h14.44a.816.816 0 01.769 1.083l-2.62 7.478a.813.813 0 01-.769.542zm-8.622-1.626h8.046L26.5 27.21h-12.15l2.052 5.852z" fill="#000"/><path d="M25.036 39.287h-9.213a.813.813 0 01-.813-.813v-4.6c0-.449.365-.812.813-.812h9.213c.45 0 .813.363.813.813v4.6c0 .448-.364.812-.813.812zm-8.4-1.626h7.587v-2.974h-7.587v2.974zM28.523 11.304a.809.809 0 01-.575-.238l-5.722-5.721A.809.809 0 0122 4.639a.81.81 0 01.44-.597l4.133-2.058a.813.813 0 01.938.153l3.645 3.646a.814.814 0 01.153.936l-2.058 4.134a.811.811 0 01-.727.451zm-4.349-6.31l4.123 4.124 1.294-2.6-2.818-2.817-2.599 1.293z" fill="currentColor"/><path d="M30.58 7.17a.81.81 0 01-.574-.237l-3.65-3.65a.813.813 0 010-1.15L28.259.229a.837.837 0 011.15 0l3.65 3.65a.813.813 0 010 1.15l-1.904 1.903a.81.81 0 01-.575.239zm-2.5-4.462l2.5 2.5.754-.754-2.5-2.501-.754.755z" fill="#000"/><path d="M17.72 23.5a.813.813 0 01-.813-.814v-4.704c0-.45.364-.813.813-.813h7.316a.812.812 0 110 1.625h-6.503v3.892c0 .45-.363.813-.813.813zM39.187 2.714h-8.606a.812.812 0 110-1.626h8.606a.812.812 0 110 1.626z" fill="currentColor"/></svg><svg fill="none" viewBox="0 0 40 40" id="adv-price" xmlns="http://www.w3.org/2000/svg"><path d="M18.105.087c-1.548.148-3.527.594-4.965 1.118-1.119.414-3.144 1.43-4.106 2.057a20.15 20.15 0 00-6.968 7.882C1.073 13.177.518 14.921.182 17.087c-.243 1.564-.243 4.301 0 5.865a20.444 20.444 0 003.863 9.173c.696.93 2.362 2.651 3.308 3.418 1.634 1.329 3.925 2.627 5.834 3.3 2.29.813 4.3 1.157 6.795 1.157 1.979 0 3.12-.14 4.895-.587 1.533-.39 2.448-.735 3.98-1.485C31 36.88 32.62 35.69 34.333 33.924c1.603-1.65 2.58-3.034 3.597-5.107.907-1.837 1.47-3.573 1.79-5.513.673-4.035.087-8.21-1.665-11.847-.336-.696-.61-1.165-.75-1.275-.822-.649-1.995-.101-1.995.93 0 .274.102.572.423 1.252 1.235 2.604 1.72 4.747 1.72 7.578.008 1.697-.07 2.44-.391 3.894-1.587 7.124-7.437 12.489-14.733 13.505-1.29.18-3.503.164-4.833-.039-5.005-.735-9.376-3.535-12.168-7.789-1.04-1.595-1.994-3.863-2.393-5.7-.54-2.518-.531-5.373.047-7.781.97-4.09 3.261-7.578 6.64-10.088 2.299-1.713 4.95-2.8 7.937-3.261 1.228-.188 3.683-.188 4.927.008a17.784 17.784 0 017.256 2.791c.923.61 1.205.696 1.697.5.837-.312 1.087-1.29.5-1.946-.25-.29-1.313-1.001-2.298-1.54C26.129.563 22.023-.29 18.105.085z" fill="currentColor"/><path d="M33.378 6.491c-.462.274-.704.845-.571 1.337.11.391.555.962.884 1.119.977.461 2.04-.383 1.767-1.4-.102-.368-.54-.93-.852-1.095-.321-.164-.923-.148-1.228.04zM17.089 10.698c-.149.086-.352.29-.446.454l-.18.305v8.406h-1.196c-1.087 0-1.228.016-1.54.172-.478.243-.72.673-.681 1.181.039.423.21.712.602.97.242.172.336.18 1.533.18h1.282v1.486h-1.196c-1.087 0-1.228.015-1.54.172-.478.242-.72.672-.681 1.18.039.423.21.712.602.97.242.172.336.18 1.533.18h1.282v1.103c0 1.259.078 1.525.54 1.837.555.376 1.321.212 1.76-.383.148-.195.163-.352.187-1.392l.023-1.165h2.91c2.588-.008 2.932-.023 3.159-.14.406-.22.594-.532.633-1.025.031-.485-.133-.821-.555-1.134-.22-.156-.32-.164-3.19-.188l-2.965-.023v-1.478h1.392c1.11 0 1.51-.031 2.034-.157a5.888 5.888 0 003.878-3.065c.5-1.017.626-1.548.626-2.682s-.117-1.658-.626-2.698c-.312-.626-.477-.845-1.079-1.447-.805-.797-1.314-1.126-2.291-1.478l-.688-.242-2.424-.024c-2.253-.023-2.44-.008-2.698.125zm5.411 2.698c2.776 1.369 2.463 5.396-.492 6.319-.384.117-.72.148-1.76.148h-1.283v-6.819l1.47.032 1.47.023.595.297z" fill="currentColor"/></svg><svg fill="none" viewBox="0 0 23 40" id="adv-professional" xmlns="http://www.w3.org/2000/svg"><path d="M14.246 10.07a3.548 3.548 0 01-3.544-3.544 3.548 3.548 0 013.544-3.544 3.548 3.548 0 013.544 3.544 3.548 3.548 0 01-3.544 3.544zm0-5.4a1.858 1.858 0 00-1.856 1.856c0 1.024.832 1.857 1.856 1.857a1.858 1.858 0 001.856-1.857 1.858 1.858 0 00-1.856-1.856z" fill="#000"/><path d="M10.936 19.325a6.626 6.626 0 01-6.619-6.617V8.424c0-.467.378-.844.844-.844h7.165a.844.844 0 110 1.688h-6.32v3.44a4.935 4.935 0 004.93 4.929 4.934 4.934 0 004.929-4.929V8.424a.844.844 0 111.688 0v4.284a6.626 6.626 0 01-6.617 6.617zM21.55 40H.845A.844.844 0 010 39.156v-7.682C0 25.3 5.023 20.278 11.198 20.278c6.174 0 11.197 5.023 11.197 11.196v7.682a.844.844 0 01-.844.844zM1.689 38.312h19.018v-6.838c0-5.244-4.266-9.508-9.508-9.508-5.244 0-9.51 4.264-9.51 9.508v6.838z" fill="currentColor"/><path d="M12.08 9.268H5.161a.844.844 0 01-.844-.844V5.537c0-.467.378-.844.844-.844h6.575a.844.844 0 110 1.688h-5.73V7.58h6.074a.844.844 0 110 1.688z" fill="currentColor"/><path d="M11.736 6.381H5.16a.845.845 0 01-.8-1.114C6.137 0 6.903 0 7.41 0h6.17c.402 0 1.243 0 2.768 3.86a.843.843 0 11-1.571.62c-.472-1.195-1.095-2.42-1.411-2.792H7.688c-.31.447-.85 1.704-1.332 3.005h5.38a.844.844 0 110 1.688zM12.644 40a.845.845 0 01-.844-.844v-9.551c0-.439.336-.805.774-.841 3-.25 5.624-1.431 6.842-3.083a.845.845 0 011.358 1.002c-1.41 1.911-4.096 3.258-7.286 3.68v8.793a.844.844 0 01-.844.844zM10.069 40a.844.844 0 01-.844-.844v-8.793c-3.434-.445-6.202-1.906-7.494-3.978a.843.843 0 111.433-.893c1.09 1.75 3.763 3.005 6.974 3.272a.844.844 0 01.775.84v9.552a.844.844 0 01-.844.844zM13.343 22.188a.844.844 0 01-.844-.844v-3.389a.844.844 0 111.686 0v3.39a.843.843 0 01-.842.843zM8.548 22.299a.845.845 0 01-.845-.844v-3.391a.845.845 0 011.688 0v3.39a.844.844 0 01-.843.845z" fill="currentColor"/></svg><svg fill="none" viewBox="0 0 32 40" id="adv-quality" xmlns="http://www.w3.org/2000/svg"><path d="M11.915.054c-.47.094-1.15.39-1.548.672-.406.29-1.149 1.133-1.149 1.313 0 .14-.664.79-.97.946-.218.11-.57.18-1.156.226-.97.079-1.633.282-2.227.665-1.032.688-1.532 1.665-1.657 3.22-.047.586-.118.938-.227 1.157-.156.304-.805.969-.946.969-.039 0-.281.156-.531.344-1.11.836-1.688 2.321-1.438 3.681.047.258.25.805.453 1.211.352.688.375.782.375 1.33 0 .546-.023.64-.383 1.336-.649 1.297-.68 2.368-.094 3.548.313.633.884 1.258 1.438 1.571.946.54 1.259 1.047 1.353 2.188.07.946.164 1.321.476 1.939.5.985 1.571 1.735 2.767 1.93.32.047.579.102.579.117 0 .008-.876 1.548-1.954 3.408-2.165 3.752-2.173 3.767-1.728 4.213.133.133.313.227.43.227.11 0 1.188-.266 2.4-.594 1.211-.32 2.227-.563 2.258-.524.032.031.313 1.047.626 2.243.383 1.454.633 2.251.742 2.368.227.266.72.32.985.11.11-.086 1.266-2.001 2.571-4.268 1.306-2.258 2.4-4.103 2.423-4.103.032 0 1.118 1.845 2.415 4.103 1.321 2.29 2.462 4.182 2.58 4.268.265.21.758.164.984-.102.102-.117.36-.946.735-2.368.32-1.204.61-2.22.633-2.251.032-.04 1.055.195 2.267.524 1.211.328 2.29.594 2.391.594.118 0 .297-.094.43-.227.446-.446.438-.461-1.727-4.213a410.718 410.718 0 01-1.954-3.407c0-.016.258-.07.578-.118 1.954-.32 3.244-1.891 3.252-3.994 0-.883.367-1.446 1.352-2.063.625-.39 1.11-.93 1.43-1.579.586-1.172.555-2.25-.094-3.54-.36-.696-.383-.79-.383-1.337 0-.547.024-.64.376-1.329.422-.844.562-1.453.5-2.188-.102-1.204-.766-2.267-1.845-2.947-1.008-.64-1.25-1.023-1.344-2.18-.07-.938-.164-1.321-.461-1.907-.641-1.259-1.712-1.884-3.44-2.025-.695-.054-.921-.109-1.187-.265-.414-.243-.75-.602-1.032-1.087-.469-.836-1.5-1.579-2.454-1.774-.946-.195-1.735-.062-2.767.485-.586.304-.688.328-1.235.328-.547 0-.648-.024-1.235-.328-.344-.188-.836-.391-1.086-.454-.414-.11-1.188-.14-1.547-.062zm1.899 1.891c1.47.743 2.47.743 3.931 0 .774-.39 1.258-.453 1.9-.273.523.156 1.023.57 1.344 1.125.336.579.586.86 1.07 1.227.641.485 1.18.665 2.204.743 1 .062 1.407.21 1.868.672.454.461.602.852.673 1.86.07 1.032.25 1.571.742 2.212.367.485.649.735 1.227 1.07.555.321.97.821 1.126 1.345.18.641.117 1.126-.274 1.9-.742 1.46-.742 2.461 0 3.923.383.766.453 1.266.274 1.884-.149.515-.587 1.047-1.126 1.36-.578.335-.86.578-1.227 1.07-.492.641-.672 1.18-.742 2.212-.07 1.008-.22 1.4-.672 1.86-.462.454-.852.602-1.86.672-1.032.07-1.572.25-2.213.743-.492.367-.734.649-1.07 1.227-.313.54-.844.977-1.36 1.125-.633.188-1.11.11-1.939-.304-1.422-.712-2.415-.704-3.869.031-.765.383-1.266.453-1.883.273-.516-.148-1.047-.586-1.36-1.125-.336-.578-.578-.86-1.07-1.227-.642-.492-1.181-.672-2.213-.743-1.008-.07-1.399-.218-1.86-.672-.453-.46-.602-.852-.672-1.86-.04-.578-.117-1.016-.234-1.32-.25-.665-.821-1.368-1.415-1.736-1.556-.977-1.907-2.009-1.173-3.47.743-1.462.743-2.462 0-3.924-.39-.773-.453-1.258-.273-1.899.156-.524.57-1.024 1.125-1.344.579-.336.86-.586 1.227-1.071.493-.649.673-1.18.743-2.204.063-.993.211-1.407.672-1.868.461-.461.868-.61 1.868-.672 1.024-.078 1.563-.258 2.204-.743.485-.367.735-.648 1.063-1.211.72-1.243 1.884-1.556 3.244-.868zM9.296 29.668c.625 1.11 2.009 1.915 3.283 1.9.234 0 .664-.063.953-.141l.516-.133-.18.32c-.101.172-.86 1.47-1.68 2.892-.813 1.415-1.516 2.564-1.548 2.556-.03-.016-.257-.766-.5-1.673-.46-1.711-.578-1.962-.977-2.04-.117-.023-.93.157-1.891.415-.93.25-1.704.437-1.72.43-.015-.016.673-1.228 1.517-2.697l1.547-2.665.219.21c.125.126.336.407.461.626zm15.202 1.837c.852 1.461 1.532 2.673 1.516 2.68-.015.016-.79-.171-1.72-.422-.937-.25-1.781-.437-1.89-.414-.4.078-.517.329-.978 2.04-.242.907-.469 1.657-.5 1.673-.031.008-.735-1.141-1.547-2.556a383.631 383.631 0 00-1.689-2.907l-.187-.329.328.117c1.563.555 3.588-.218 4.424-1.688.164-.289.617-.86.688-.86.007 0 .71 1.196 1.555 2.666z" fill="currentColor"/><path d="M14.377 4.298c-1.54.21-3.44.844-3.885 1.297-.367.36-.328.805.086 1.141.25.204.5.172 1.36-.172 1.508-.61 2.814-.828 4.353-.75 2.556.133 4.69 1.086 6.534 2.931 1.454 1.446 2.345 3.08 2.775 5.088.203.93.203 2.978 0 3.908-.43 2.009-1.32 3.642-2.775 5.088-2.032 2.04-4.658 3.072-7.472 2.939-2.571-.117-4.775-1.102-6.612-2.939-1.149-1.141-1.876-2.29-2.4-3.76-.413-1.187-.523-1.852-.515-3.321.008-1.516.133-2.235.617-3.486.532-1.368.547-1.594.094-1.868-.586-.36-.992-.094-1.422.922-1.454 3.463-1.095 7.574.945 10.7 1.759 2.72 4.424 4.51 7.652 5.159 1.055.203 3.244.187 4.307-.04 1.555-.335 2.782-.828 3.994-1.625 2.72-1.759 4.51-4.424 5.15-7.652.196-.977.196-3.165 0-4.142-.64-3.228-2.43-5.885-5.15-7.652-1.189-.781-2.47-1.297-3.955-1.61-.86-.187-2.869-.266-3.681-.156z" fill="currentColor"/><path d="M7.811 7.479c-.703.36-.461 1.43.328 1.43.673 0 1.024-.813.563-1.282-.117-.109-.25-.203-.312-.203a.665.665 0 01-.204-.039c-.054-.023-.226.024-.375.094zM16.721 9.738c-.453.195-.774.492-1.149 1.07-.445.665-1.149 1.43-1.672 1.822l-.375.273-.36-.117c-.266-.094-.688-.125-1.704-.125-1.14 0-1.391.023-1.657.148-.367.172-.695.5-.813.813-.054.149-.086 1.43-.086 3.713 0 3.931 0 3.915.594 4.36l.29.228 1.649.023 1.649.023.352-.226.351-.22.587.196c.578.196.625.204 3.407.227 2.712.023 2.83.016 3.26-.14.539-.204 1.117-.735 1.383-1.29.195-.391.195-.407.195-2.736 0-2.657-.015-2.72-.656-3.423-.485-.524-1.11-.774-2.064-.82-.516-.024-.758-.063-.734-.126.36-.992.46-1.43.43-1.876-.094-1.133-.954-1.922-2.095-1.922-.282.007-.633.062-.782.125zm1.204 1.61c.18.25.156.39-.156 1.336-.243.72-.313.86-.516.962-.454.234-.54.86-.164 1.242.203.196.21.196 1.657.204 1.64 0 1.907.054 2.172.453.172.258.18.313.18 2.173 0 2.133-.039 2.313-.492 2.555-.227.125-.524.133-2.869.11-2.587-.024-2.626-.024-3.087-.219l-.469-.195-.023-2.783-.016-2.782.524-.399c.672-.492 1.602-1.461 2.094-2.165.454-.649.477-.664.797-.664.173 0 .29.054.368.172zm-5.346 5.963v3.087h-2.11v-6.174h2.11v3.087z" fill="currentColor"/></svg><svg fill="none" viewBox="0 0 24 20" id="alert" xmlns="http://www.w3.org/2000/svg"><path d="M23.307 17.778L13.043.74A1.469 1.469 0 0011.773 0a1.613 1.613 0 00-1.27.74L.238 17.779a1.27 1.27 0 000 1.481 1.468 1.468 0 001.27.741h20.53a1.613 1.613 0 001.27-.74 1.799 1.799 0 000-1.482zm-10.37-.953H10.82V14.71h2.117v2.116zm0-4.232H10.82v-6.35h2.117v6.35z" fill="currentColor"/></svg><svg fill="none" viewBox="0 0 12 20" id="arrow-left" xmlns="http://www.w3.org/2000/svg"><path d="M12 17.667L4.54 10 12 2.333 9.73 0 0 10l9.73 10L12 17.667z" fill="currentColor"/></svg><svg fill="none" viewBox="0 0 12 20" id="arrow-right" xmlns="http://www.w3.org/2000/svg"><path d="M0 17.667L7.46 10 0 2.333 2.27 0 12 10 2.27 20 0 17.667z" fill="currentColor"/></svg><svg fill="none" viewBox="0 0 17 20" id="bus" xmlns="http://www.w3.org/2000/svg"><path d="M14.737 9.474H2.105V4.21h12.632v5.263zm-1.58 6.316a1.579 1.579 0 11.001-3.158 1.579 1.579 0 010 3.158zm-9.473 0a1.579 1.579 0 110-3.159 1.579 1.579 0 010 3.159zM0 14.736c0 .926.41 1.758 1.053 2.337v1.873A1.053 1.053 0 002.105 20h1.053a1.053 1.053 0 001.053-1.053v-1.052h8.42v1.052A1.053 1.053 0 0013.685 20h1.053a1.053 1.053 0 001.053-1.053v-1.873a3.143 3.143 0 001.052-2.337V4.21C16.842.526 13.074 0 8.422 0 3.767 0-.001.526-.001 4.21v10.527z" fill="currentColor"/></svg><svg fill="none" viewBox="0 0 20 20" id="clock" xmlns="http://www.w3.org/2000/svg"><path d="M10 18c4.4 0 8-3.6 8-8s-3.6-8-8-8-8 3.6-8 8 3.6 8 8 8zm0-18c5.5 0 10 4.5 10 10s-4.5 10-10 10S0 15.5 0 10 4.5 0 10 0zm5 9.5V11H9V5h1.5v4.5H15z" fill="currentColor"/></svg><svg fill="none" viewBox="0 0 20 20" id="close" xmlns="http://www.w3.org/2000/svg"><path d="M20 2.014L17.986 0 10 7.986 2.014 0 0 2.014 7.986 10 0 17.986 2.014 20 10 12.014 17.986 20 20 17.986 12.014 10 20 2.014z" fill="currentColor"/></svg><svg fill="none" viewBox="0 0 20 14" id="eye" xmlns="http://www.w3.org/2000/svg"><path d="M10 4.09a2.727 2.727 0 110 5.456 2.727 2.727 0 010-5.455zM10 0c4.546 0 8.427 2.827 10 6.818-1.573 3.991-5.454 6.818-10 6.818-4.545 0-8.427-2.827-10-6.818C1.573 2.828 5.455 0 10 0zM1.982 6.818a8.928 8.928 0 0016.036 0 8.928 8.928 0 00-16.036 0z" fill="currentColor"/></svg><svg fill="none" viewBox="0 0 14 20" id="geo" xmlns="http://www.w3.org/2000/svg"><path d="M7 4.5a2.5 2.5 0 110 5 2.5 2.5 0 010-5zM7 0a7 7 0 017 7c0 5.25-7 13-7 13S0 12.25 0 7a7 7 0 017-7zm0 2a5 5 0 00-5 5c0 1 0 3 5 9.71C12 10 12 8 12 7a5 5 0 00-5-5z" fill="currentColor"/></svg><svg fill="none" viewBox="0 0 20 20" id="instagram" xmlns="http://www.w3.org/2000/svg"><path d="M5.8 0h8.4C17.4 0 20 2.6 20 5.8v8.4a5.8 5.8 0 01-5.8 5.8H5.8C2.6 20 0 17.4 0 14.2V5.8A5.8 5.8 0 015.8 0zm-.2 2A3.6 3.6 0 002 5.6v8.8C2 16.39 3.61 18 5.6 18h8.8a3.6 3.6 0 003.6-3.6V5.6C18 3.61 16.39 2 14.4 2H5.6zm9.65 1.5a1.25 1.25 0 110 2.5 1.25 1.25 0 010-2.5zM10 5a5 5 0 110 10 5 5 0 010-10zm0 2a3 3 0 100 6 3 3 0 000-6z" fill="currentColor"/></svg><svg fill="none" viewBox="0 0 20 16" id="mail" xmlns="http://www.w3.org/2000/svg"><path d="M20 2c0-1.1-.9-2-2-2H2C.9 0 0 .9 0 2v12c0 1.1.9 2 2 2h16c1.1 0 2-.9 2-2V2zm-2 0l-8 5-8-5h16zm0 12H2V4l8 5 8-5v10z" fill="currentColor"/></svg><svg fill="none" viewBox="0 0 18 12" id="menu" xmlns="http://www.w3.org/2000/svg"><path d="M0 0h18v2H0V0zm0 5h18v2H0V5zm0 5h18v2H0v-2z" fill="currentColor"/></svg><svg fill="none" viewBox="0 0 20 20" id="phone" xmlns="http://www.w3.org/2000/svg"><path d="M4.022 8.656a16.774 16.774 0 007.322 7.322l2.445-2.445c.311-.31.744-.4 1.133-.277 1.245.41 2.578.633 3.967.633A1.111 1.111 0 0120 15v3.889A1.111 1.111 0 0118.889 20 18.889 18.889 0 010 1.111 1.111 1.111 0 011.111 0H5a1.111 1.111 0 011.111 1.111c0 1.389.222 2.722.633 3.967.123.389.034.822-.277 1.133L4.022 8.656z" fill="currentColor"/></svg><svg fill="none" viewBox="0 0 40 40" id="service_correction" xmlns="http://www.w3.org/2000/svg"><path d="M9.662.06c-4.657.534-7.606 3.376-8.46 8.159-.254 1.426-.272 3.873-.038 5.158.15.845.46 2.157.582 2.476.047.122-.028.15-.478.15-.864 0-1.268.348-1.268 1.088 0 .244.075.413.272.61.273.263.3.272 1.268.272h.986l1.005 1.942c2.554 4.923 2.91 5.805 3.558 8.75.733 3.33 1.822 5.909 3.718 8.77 1.24 1.884 1.4 2.063 2.01 2.353 1.08.516 2.366.057 2.91-1.022l.235-.478V34.63c0-2.017.038-3.911.094-4.22.348-2.158 2.282-4.196 4.385-3.858 1.737.281 3.221 2.132 3.503 3.857.056.31.094 2.204.094 4.22v3.659l.234.478c.545 1.079 1.831 1.538 2.911 1.022.61-.29.77-.469 1.953-2.26 2.028-3.076 2.996-5.355 3.775-8.863.648-2.954 1.005-3.827 3.558-8.75l1.005-1.942h.986c.967 0 .995-.01 1.268-.272.197-.197.272-.366.272-.61 0-.75-.394-1.088-1.277-1.088-.441 0-.516-.028-.47-.15.123-.319.432-1.631.583-2.476.216-1.19.216-3.648 0-4.924-.714-4.314-3.099-7.137-6.79-8.075C30.17-.1 28.302-.1 26.01.35c-1.84.366-3.971 1.2-5.568 2.167l-.554.337-.76-.412C15.662.603 12.29-.241 9.662.059zm3.906 2.288c1.793.478 2.864.966 7.559 3.414C22.488 6.475 23.737 7 24.047 7c.282 0 .714-.282.826-.535.16-.347.122-.825-.084-1.078-.094-.132-.385-.31-.63-.404a23.399 23.399 0 01-1.333-.59l-.873-.432.789-.394c1.014-.506 2.47-1.013 3.624-1.257 1.324-.281 3.39-.347 4.48-.14 3.99.75 6.159 3.854 6.15 8.816-.01 1.482-.207 2.842-.611 4.173l-.263.844H28l-.028-1.012c-.038-.948-.066-1.06-.385-1.726a3.937 3.937 0 00-1.934-1.885l-.63-.3H14.976l-.629.3a3.937 3.937 0 00-1.934 1.885c-.32.666-.347.778-.385 1.726L12 16.003H3.878l-.263-.844c-.404-1.331-.6-2.691-.61-4.173C2.995 6.128 5.07 3.05 8.92 2.207c1.202-.262 3.362-.197 4.648.14zm11.07 10.767c.498.15 1.108.76 1.259 1.256.178.62.16 4.915-.038 5.365a2.05 2.05 0 01-1.023 1.06c-.348.16-.695.178-4.864.178-4.235 0-4.507-.01-4.836-.178-.45-.234-.817-.619-.995-1.06-.122-.281-.15-.788-.15-2.673 0-1.36.047-2.476.103-2.691.122-.441.798-1.135 1.23-1.267.488-.14 8.836-.13 9.315.01zm-12.61 5.89c.085 1.416.376 2.082 1.277 2.926 1.136 1.05 1.465 1.107 6.695 1.107s5.559-.057 6.695-1.107c.901-.844 1.192-1.51 1.277-2.926l.056-.985 3.596-.028c1.972-.01 3.587.01 3.587.047 0 .047-.319.666-.713 1.388-1.493 2.757-1.822 3.404-2.244 4.455-.545 1.36-.874 2.457-1.315 4.408-.704 3.17-1.653 5.383-3.484 8.14-1.483 2.252-1.39 2.42-1.446-2.56-.047-3.77-.065-4.07-.253-4.614-.855-2.542-3.165-4.249-5.756-4.249-2.62 0-4.939 1.735-5.784 4.314-.15.45-.178 1.013-.225 4.55-.057 4.989.047 4.82-1.484 2.513-1.765-2.673-2.798-5.084-3.408-7.888-.705-3.33-1.38-5.036-3.456-8.835-.47-.853-.854-1.575-.854-1.622 0-.038 1.615-.057 3.596-.047l3.587.028.056.985z" fill="currentColor"/></svg><svg fill="none" viewBox="0 0 18 40" id="service_cure" xmlns="http://www.w3.org/2000/svg"><path d="M3.77 40C1.69 40 0 38.234 0 36.065c0-.04 0-.16 1.223-17.358a.869.869 0 01.867-.807h3.393c.456 0 .835.354.867.809 1.188 17.198 1.188 17.317 1.188 17.355 0 2.17-1.69 3.936-3.769 3.936zM2.9 19.638A8790.424 8790.424 0 001.736 36.1c.001 1.175.912 2.161 2.033 2.161 1.12 0 2.03-.986 2.03-2.197-.015-.292-.714-10.442-1.128-16.427H2.9z" fill="currentColor"/><path d="M5.459 19.638a.869.869 0 01-.869-.87c0-1.264-.142-1.382-.804-1.382s-.805.119-.805 1.383a.869.869 0 11-1.737 0c0-.854 0-3.121 2.542-3.121s2.542 2.267 2.542 3.12c0 .481-.39.87-.87.87z" fill="currentColor"/><path d="M3.786 17.386a.869.869 0 01-.869-.87V7.679L.838 5.6a.87.87 0 01-.1-1.11l2.334-3.372a.869.869 0 011.429.99L2.58 4.882 4.4 6.704a.868.868 0 01.255.614v9.199a.87.87 0 01-.87.869zM13.126 40c-2.079 0-3.77-1.766-3.77-3.935 0-.04 0-.16 1.223-17.358a.869.869 0 01.867-.807h3.393c.457 0 .835.354.867.809 1.189 17.198 1.189 17.317 1.189 17.355 0 2.17-1.69 3.936-3.77 3.936zm-.87-20.362A8756.741 8756.741 0 0011.094 36.1c0 1.175.912 2.161 2.032 2.161s2.03-.986 2.03-2.197c-.014-.292-.714-10.442-1.128-16.427h-1.772z" fill="currentColor"/><path d="M14.815 19.638a.869.869 0 01-.87-.87c0-1.264-.14-1.382-.803-1.382-.662 0-.804.119-.804 1.383a.869.869 0 11-1.738 0c0-.854 0-3.121 2.542-3.121s2.542 2.267 2.542 3.12c0 .481-.39.87-.869.87z" fill="currentColor"/><path d="M13.143 17.386a.869.869 0 01-.87-.87V7.975a.869.869 0 111.738 0v8.543c0 .48-.39.869-.868.869z" fill="currentColor"/><path d="M13.126 8.84a4.391 4.391 0 01-3.127-1.293 4.428 4.428 0 010-6.253A4.396 4.396 0 0113.126 0c1.18 0 2.29.46 3.125 1.295a4.391 4.391 0 011.295 3.126c0 1.18-.46 2.29-1.295 3.125a4.392 4.392 0 01-3.126 1.295zm0-7.102c-.718 0-1.391.279-1.898.785a2.688 2.688 0 000 3.795c1.013 1.013 2.782 1.012 3.795 0 .507-.507.786-1.181.786-1.897 0-.717-.279-1.391-.786-1.898a2.668 2.668 0 00-1.897-.785z" fill="currentColor"/><path d="M9.868 6.676a.869.869 0 01-.614-1.483L13.898.55a.869.869 0 111.228 1.228l-4.643 4.643a.866.866 0 01-.615.255zM11.739 8.547a.869.869 0 01-.614-1.483l4.643-4.645a.869.869 0 111.229 1.229l-4.643 4.644a.868.868 0 01-.615.255z" fill="currentColor"/></svg><svg fill="none" viewBox="0 0 40 37" id="service_diagnosis" xmlns="http://www.w3.org/2000/svg"><path d="M26.99 21.459a.764.764 0 01-.722-1.016c.623-1.784 1.03-3.453 1.147-4.7.036-.377.053-.76.053-1.137 0-3.735-1.714-7.211-4.586-9.298a.764.764 0 01.899-1.237c3.265 2.374 5.216 6.313 5.216 10.535 0 .424-.021.855-.06 1.28-.164 1.751-.758 3.718-1.227 5.061a.765.765 0 01-.72.512zM8.41 36.464c-.567 0-1.207-.225-1.783-.643-.914-.664-2.429-2.378-2.309-6.393.08-2.624-.298-4.493-1.153-5.71C1.886 21.896.29 18.033.045 15.402c-.03-.31-.045-.623-.045-.94 0-5.165 3.93-9.367 8.76-9.367 1.867 0 2.826.692 3.597 1.249.557.402.87.612 1.36.612.474 0 .748-.19 1.275-.586.717-.538 1.699-1.275 3.684-1.275a.764.764 0 010 1.528c-1.475 0-2.103.47-2.767.97-.556.417-1.187.89-2.191.89-1.008 0-1.67-.478-2.256-.9-.684-.494-1.33-.96-2.702-.96-3.988 0-7.232 3.516-7.232 7.838 0 .27.013.537.037.8.214 2.286 1.708 5.952 2.85 7.58 1.052 1.497 1.519 3.667 1.43 6.633-.102 3.415 1.128 4.702 1.662 5.097.35.26.66.346.843.362.159-.442.341-1.563.491-2.487.222-1.364.498-3.061.943-4.706.593-2.195 1.98-3.615 3.62-3.706 1.7-.11 3.29 1.267 4.228 3.645.787 1.995 1.056 4.123 1.252 5.677.07.56.155 1.228.24 1.573.186-.024.479-.115.806-.358.533-.395 1.763-1.681 1.66-5.096-.088-2.967.38-5.137 1.43-6.634.174-.247.36-.546.553-.891a.764.764 0 111.332.747c-.218.39-.432.734-.635 1.023-.854 1.216-1.23 3.084-1.152 5.708.12 4.016-1.394 5.729-2.308 6.393-.797.577-1.713.788-2.392.544-.728-.262-.836-1.116-1.05-2.817-.186-1.474-.44-3.492-1.157-5.308-.684-1.736-1.695-2.727-2.723-2.681-.959.053-1.813 1.042-2.23 2.58-.423 1.568-.692 3.223-.908 4.553-.38 2.33-.552 3.393-1.332 3.673-.187.067-.393.1-.609.1z" fill="currentColor"/><path d="M28.11 23.78c-6.556 0-11.89-5.334-11.89-11.89C16.22 5.334 21.554 0 28.11 0 34.667 0 40 5.334 40 11.89c0 6.557-5.333 11.89-11.89 11.89zm0-22.252c-5.713 0-10.362 4.648-10.362 10.362s4.65 10.363 10.362 10.363c5.714 0 10.362-4.65 10.362-10.363 0-5.714-4.648-10.362-10.362-10.362z" fill="currentColor"/><path d="M28.11 21.371c-.391 0-.782-.023-1.162-.07-4.742-.58-8.319-4.626-8.319-9.41 0-5.229 4.254-9.482 9.481-9.482 5.229 0 9.482 4.253 9.482 9.481s-4.253 9.481-9.482 9.481zm0-17.434c-4.385 0-7.953 3.568-7.953 7.953 0 4.014 3 7.408 6.977 7.895.32.038.648.058.976.058 4.386 0 7.953-3.568 7.953-7.953s-3.567-7.953-7.953-7.953zM34.355 36.164a2.491 2.491 0 01-2.392-1.816l-2.368-8.951a2.487 2.487 0 012.395-3.144c1.11 0 2.094.746 2.393 1.815l2.369 8.952c.176.628.094 1.3-.232 1.878a2.492 2.492 0 01-2.165 1.266zM31.99 23.78a.959.959 0 00-.92 1.215l2.367 8.952a.966.966 0 001.176.653.951.951 0 00.576-.452.951.951 0 00.088-.727l-2.368-8.952a.958.958 0 00-.92-.689z" fill="currentColor"/></svg><svg fill="none" viewBox="0 0 34 40" id="service_prevention" xmlns="http://www.w3.org/2000/svg"><path d="M19.365 26.3c-.158 0-.308-.024-.446-.073-.62-.223-.698-.844-.806-1.702-.083-.655-.197-1.553-.505-2.335-.29-.737-.628-.931-.766-.931-.18 0-.449.291-.595.831-.19.702-.311 1.453-.41 2.056-.2 1.236-.301 1.855-.934 2.08-.572.205-1.335-.034-1.879-.594-.46-.474-1-1.395-.95-3.088.034-1.088-.116-1.877-.444-2.344-.626-.893-1.409-2.79-1.53-4.08a5.122 5.122 0 01-.022-.482c0-2.659 2.037-4.822 4.54-4.822 1.022 0 1.581.404 1.95.67.223.16.277.192.343.192.053 0 .086-.017.295-.173.365-.274.916-.689 1.997-.689 2.504 0 4.542 2.163 4.542 4.822 0 .163-.008.323-.023.481-.12 1.293-.904 3.188-1.53 4.08-.328.468-.477 1.257-.444 2.345.05 1.693-.489 2.614-.95 3.088-.413.425-.935.669-1.433.669zm-4.747-13.797c-1.573 0-2.854 1.407-2.854 3.135 0 .11.006.218.016.325.09.967.747 2.58 1.23 3.268.55.782.795 1.883.75 3.363-.026.88.154 1.4.344 1.694l.068-.412c.104-.642.234-1.441.447-2.225.346-1.283 1.198-2.08 2.223-2.08.983 0 1.834.729 2.335 2 .367.93.502 1.895.594 2.628.169-.305.314-.809.29-1.604-.044-1.481.2-2.582.75-3.364.484-.689 1.14-2.301 1.231-3.268.01-.107.015-.214.015-.325 0-1.728-1.28-3.135-2.854-3.135-.518 0-.704.14-.985.351-.286.216-.68.51-1.307.51-.625 0-1.032-.294-1.33-.51-.292-.21-.486-.35-.963-.35z" fill="currentColor"/><path d="M16.911 40a.825.825 0 01-.33-.068l.329-.776-.33.776c-.38-.16-9.331-4.012-13.613-11.559C-1.353 20.763.297 3.412.369 2.677a.842.842 0 01.673-.744L10.594.017c.245-.05.5.011.694.17 1.148.922 3.302 1.495 5.623 1.495s4.475-.573 5.623-1.495a.837.837 0 01.694-.17l9.552 1.916a.842.842 0 01.673.744c.073.735 1.722 18.086-2.598 25.696-4.272 7.528-13.23 11.396-13.61 11.558a.838.838 0 01-.334.069zM1.994 3.461c-.254 3.176-1.18 17.702 2.44 24.08 3.606 6.356 10.835 9.942 12.477 10.693 1.64-.753 8.873-4.344 12.477-10.692 3.62-6.379 2.693-20.905 2.44-24.08l-8.565-1.719c-1.485 1.023-3.82 1.626-6.352 1.626-2.534 0-4.868-.603-6.353-1.626L1.994 3.461z" fill="currentColor"/><path d="M16.91 36.126a.84.84 0 01-.39-.096c-2.76-1.443-7.795-4.58-10.518-9.378-3.007-5.296-2.564-17.443-2.357-21.04a.844.844 0 01.676-.779L9.922 3.71a.85.85 0 01.552.078c1.738.892 4.024 1.383 6.436 1.383 2.413 0 4.699-.49 6.437-1.384a.85.85 0 01.551-.077l5.608 1.125a.841.841 0 01.676.776c.418 7.05.05 16.791-2.362 21.041-2.725 4.799-7.76 7.935-10.519 9.378a.841.841 0 01-.39.096zM5.295 6.359c-.356 7.06.033 15.687 2.175 19.461 2.453 4.323 7.159 7.268 9.442 8.507 2.282-1.239 6.987-4.184 9.442-8.508 2.026-3.57 2.55-12.224 2.18-19.458l-4.684-.94c-1.933.928-4.383 1.437-6.939 1.437-2.555 0-5.005-.51-6.938-1.436l-4.678.937z" fill="currentColor"/></svg><svg fill="none" viewBox="0 0 40 40" id="service_prothes" xmlns="http://www.w3.org/2000/svg"><path d="M12.414.175C10.92.495 9.256 1.466 8.189 2.65 6.663 4.325 5.767 6.79 5.874 8.987c.053 1.344-.235 1.26 4.513 1.227l3.968-.032.384-.299c.555-.416.715-.704.822-1.45.053-.353.117-.694.16-.758.043-.075 1.483-.107 4.267-.107 4.598 0 4.32-.042 4.32.63 0 .747.47 1.504 1.12 1.824.417.203.662.213 4.3.213 3.66 0 3.873-.01 4.065-.202.63-.63.213-3.766-.747-5.558-1.088-2.038-2.838-3.5-5.003-4.182-1.153-.352-3.222-.352-4.374 0-.96.309-1.665.65-2.497 1.237-.544.374-.704.438-1.184.438s-.65-.064-1.333-.523c-1.9-1.28-4.118-1.728-6.241-1.27zm3.755 1.654c.416.15 1.088.49 1.493.747 1.014.672 1.302.81 1.931.896.811.106 1.494-.107 2.603-.822 1.345-.864 2.155-1.11 3.66-1.11 1.45 0 2.4.278 3.53 1.036 1.27.842 2.177 2.016 2.71 3.499.246.65.534 2.059.534 2.57 0 .054-1.344.097-3.307.097-3.158 0-3.307-.01-3.414-.203a1.695 1.695 0 01-.107-.587c0-.49-.17-.906-.512-1.27-.587-.618-.49-.607-5.302-.607-3.904 0-4.491.021-4.822.17-.523.257-.875.769-1.003 1.494-.192 1.035.139.95-3.563.982l-3.286.02.075-.757c.31-3.147 2.55-5.771 5.451-6.39.811-.181 2.486-.053 3.329.235zM15.774 11.046c-.757.33-1.12.843-1.237 1.76-.043.32-.118.64-.182.705-.074.106-1.024.138-4.075.138-3.873 0-3.969 0-4.171.224-.235.267-.235.864.021 1.9.181.757.843 2.26 1.227 2.794.256.374.213.438-.384.63-.566.181-1.312.555-2.347 1.184-1.099.65-1.974.939-3.222 1.045-.715.064-1.056.139-1.184.267-.17.16-.182.768-.214 6.817-.02 4.246.011 6.902.086 7.382.224 1.462 1.205 2.892 2.432 3.51 1.238.63.374.598 17.464.598 17.165 0 16.29.032 17.485-.619.79-.427 1.537-1.237 1.974-2.155l.384-.8.032-7.276.032-7.265-.288-.224c-.224-.17-.438-.224-.992-.224-1.302 0-2.433-.384-3.884-1.323-.533-.341-1.514-.81-2.24-1.056-.17-.064-.16-.117.139-.565.715-1.035 1.387-2.987 1.387-4.054 0-.811.128-.79-4.353-.79h-3.958l-.16-.234c-.096-.128-.17-.427-.17-.651 0-.438-.289-1.088-.609-1.376-.533-.491-.778-.512-4.8-.512-3.169.01-3.883.032-4.193.17zm7.98 1.451c.075.075.128.277.128.459 0 .939.63 1.845 1.44 2.07.267.074 1.664.117 3.766.117h3.35l-.075.341c-.256 1.184-.95 2.326-2.197 3.68-1.003 1.078-1.537 1.985-1.803 3.073-.064.288-.171 1.248-.214 2.134-.16 2.827-.896 4.62-2.656 6.486-.49.512-.747.715-.907.694-.203-.032-.224-.107-.245-.993-.128-5.046-1.515-9.174-3.372-10.07-.586-.288-1.44-.3-1.973-.022-1.792.907-3.147 4.652-3.286 9.025-.032.875-.075 1.707-.107 1.835-.18.897-1.93-.97-2.933-3.115-.566-1.205-.832-2.4-.907-4.054-.117-2.443-.523-3.445-2.123-5.174-.534-.576-1.13-1.344-1.323-1.696-.341-.65-.757-1.739-.757-1.995 0-.107.736-.15 3.563-.17l3.563-.033.459-.32c.544-.384.843-.917.843-1.493 0-.235.074-.544.17-.672l.16-.235h3.66c2.698 0 3.68.032 3.776.128zM9.202 20.722c.737.907.94 1.537 1.046 3.265.128 2.379.384 3.488 1.174 5.1a10.605 10.605 0 002.07 2.933c.874.885 1.151 1.045 1.802 1.045.544 0 .95-.17 1.29-.554.46-.502.513-.737.588-2.646.106-2.795.544-4.929 1.322-6.561.747-1.558 1.494-1.931 2.23-1.12 1.163 1.29 1.92 4.128 2.07 7.798.075 1.782.096 1.9.363 2.305.48.725 1.472.992 2.282.608.555-.267 1.942-1.814 2.582-2.88 1.035-1.729 1.622-3.713 1.622-5.484 0-1.792.427-3.18 1.227-3.947.341-.331.362-.331.81-.214.683.192 1.729.683 2.817 1.334 1.077.65 2.23 1.067 3.232 1.184l.672.075-.032 6.624-.032 6.625-.32.577c-.181.33-.544.757-.832.992-.992.779.16.736-17.421.704l-15.778-.032-.491-.224a3.556 3.556 0 01-1.664-1.622L1.532 36 1.5 29.481l-.032-6.508.81-.128c1.014-.16 2.294-.65 3.159-1.216 1.024-.661 2.624-1.355 3.157-1.366.15 0 .374.171.608.46z" fill="currentColor"/></svg></svg>