<?xml version="1.0" encoding="UTF-8"?>
<!DOCTYPE svg PUBLIC "-//W3C//DTD SVG 1.1//EN" "http://www.w3.org/Graphics/SVG/1.1/DTD/svg11.dtd">
<svg xmlns="http://www.w3.org/2000/svg" version="1.1" width="400px" height="437px" style="shape-rendering:geometricPrecision; text-rendering:geometricPrecision; image-rendering:optimizeQuality; fill-rule:evenodd; clip-rule:evenodd" xmlns:xlink="http://www.w3.org/1999/xlink">
<g><path style="opacity:0.932" fill="#000203" d="M 181.5,-0.5 C 190.833,-0.5 200.167,-0.5 209.5,-0.5C 241.964,10.2898 274.631,20.7898 307.5,31C 332.167,44.6667 356.833,58.3333 381.5,72C 387.698,75.5944 393.698,79.4278 399.5,83.5C 399.5,98.1667 399.5,112.833 399.5,127.5C 397.125,204.26 375.625,275.26 335,340.5C 321.672,353.732 307.505,365.898 292.5,377C 264.094,397.856 235.094,417.69 205.5,436.5C 204.167,436.5 202.833,436.5 201.5,436.5C 174.769,418.62 147.436,401.454 119.5,385C 112.5,380 105.5,375 98.5,370C 70.0701,337.657 46.2367,302.157 27,263.5C 17.019,242.221 10.6856,219.887 8,196.5C 4.52441,169.081 1.69108,141.747 -0.5,114.5C -0.5,107.5 -0.5,100.5 -0.5,93.5C 16.2024,76.3089 34.8691,61.4755 55.5,49C 74.9356,37.7833 95.2689,28.45 116.5,21C 138.271,13.6871 159.938,6.52041 181.5,-0.5 Z"/></g>
<g><path style="opacity:1" fill="#008cd0" d="M 183.5,9.5 C 190.841,9.33368 198.174,9.50034 205.5,10C 238.5,20.3333 271.5,30.6667 304.5,41C 332.63,56.5661 360.63,72.3995 388.5,88.5C 393.119,153.452 382.619,215.786 357,275.5C 347.241,296.899 336.241,317.566 324,337.5C 319.135,342.7 313.968,347.533 308.5,352C 286.5,368 264.5,384 242.5,400C 230.278,408.398 217.945,416.565 205.5,424.5C 169.859,405.017 135.525,383.517 102.5,360C 77.4658,329.942 55.9658,297.442 38,262.5C 32.0109,249.532 27.0109,236.199 23,222.5C 15.7532,181.125 11.4199,139.459 10,97.5C 41.0268,67.1788 77.1934,45.0121 118.5,31C 140.232,23.7002 161.899,16.5335 183.5,9.5 Z"/></g>
<g><path style="opacity:1" fill="#050608" d="M 258.5,59.5 C 274.301,61.0264 289.634,64.5264 304.5,70C 313.446,80.7201 321.279,92.2201 328,104.5C 327.801,128.093 325.134,151.426 320,174.5C 318.941,177.618 317.608,180.618 316,183.5C 309.328,194.325 302.495,204.991 295.5,215.5C 297.421,222.027 298.588,228.694 299,235.5C 300,260.829 300.333,286.162 300,311.5C 297.827,322.526 295.494,333.526 293,344.5C 287.506,354.649 280.673,363.815 272.5,372C 266.461,375.809 260.961,375.309 256,370.5C 254.275,367.326 252.942,363.993 252,360.5C 250.405,349.862 249.072,339.195 248,328.5C 240.927,305.947 234.26,283.28 228,260.5C 219.727,248.725 209.893,238.392 198.5,229.5C 182.363,245.081 170.196,263.414 162,284.5C 153.913,304.021 149.579,324.355 149,345.5C 148.185,352.394 146.519,359.061 144,365.5C 136.942,375.51 128.609,376.844 119,369.5C 112.144,359.597 108.477,348.597 108,336.5C 105.853,309.856 104.52,283.189 104,256.5C 105.271,249.852 107.438,243.519 110.5,237.5C 98.9402,220.74 88.7735,203.073 80,184.5C 78.4646,180.227 77.1312,175.894 76,171.5C 72.8269,151.946 71.4936,132.28 72,112.5C 73.8725,98.9247 79.3725,87.0914 88.5,77C 106.934,68.6379 126.268,65.3045 146.5,67C 160.902,68.4123 175.069,70.9123 189,74.5C 212.23,69.2175 235.396,64.2175 258.5,59.5 Z"/></g>
<g><path style="opacity:1" fill="#fcfcfc" d="M 254.5,69.5 C 269.868,70.2572 284.868,73.0905 299.5,78C 304.716,86.9343 310.549,95.4343 317,103.5C 318.838,106.037 319.671,108.871 319.5,112C 316.946,132.212 314.113,152.379 311,172.5C 302.916,185.67 294.583,198.67 286,211.5C 286.321,217.53 287.321,223.53 289,229.5C 290.067,256.5 290.733,283.5 291,310.5C 288.56,320.804 286.227,331.137 284,341.5C 279.599,349.799 274.099,357.299 267.5,364C 265.888,364.72 264.388,364.554 263,363.5C 260.344,349.897 258.011,336.23 256,322.5C 249.667,300.833 243.333,279.167 237,257.5C 233.827,251.819 230.161,246.486 226,241.5C 219.404,235.449 212.904,229.282 206.5,223C 216.819,215.004 228.486,210.337 241.5,209C 244.265,206.034 243.932,203.367 240.5,201C 223.923,201.618 209.256,207.285 196.5,218C 169.465,244.56 151.632,276.393 143,313.5C 141.03,328.896 138.697,344.23 136,359.5C 134.876,364.115 132.043,365.615 127.5,364C 122.676,359.59 119.843,354.09 119,347.5C 117.284,327.842 115.617,308.175 114,288.5C 113.333,277.833 113.333,267.167 114,256.5C 115.44,249.667 117.94,243.334 121.5,237.5C 113.619,224.087 105.452,210.754 97,197.5C 93.1906,190.701 89.8573,183.701 87,176.5C 83.3727,158.016 81.2061,139.349 80.5,120.5C 80.657,105.362 86.3237,92.8623 97.5,83C 110.577,79.938 123.744,77.438 137,75.5C 151.578,77.1024 166.078,79.269 180.5,82C 204.12,89.5412 227.454,97.2078 250.5,105C 253.311,101.706 252.978,98.7065 249.5,96C 236.452,89.8746 223.118,84.5413 209.5,80C 224.789,77.1796 239.789,73.6796 254.5,69.5 Z"/></g>
<g><path style="opacity:1" fill="#070707" d="M 142.5,126.5 C 138.167,126.5 133.833,126.5 129.5,126.5C 129.205,128.735 129.539,130.735 130.5,132.5C 130.816,135.978 130.316,139.312 129,142.5C 125.751,144.117 123.084,143.451 121,140.5C 120.501,135.845 120.334,131.179 120.5,126.5C 115.156,126.666 109.823,126.499 104.5,126C 101.833,123.333 101.833,120.667 104.5,118C 109.489,117.501 114.489,117.334 119.5,117.5C 119.334,112.156 119.501,106.823 120,101.5C 122.667,98.8333 125.333,98.8333 128,101.5C 129.271,106.754 129.771,112.087 129.5,117.5C 134.628,117.112 139.628,117.612 144.5,119C 146.167,122.178 145.5,124.678 142.5,126.5 Z"/></g>
<g><path style="opacity:1" fill="#7a7a7a" d="M 142.5,126.5 C 138.702,127.483 134.702,127.817 130.5,127.5C 130.5,129.167 130.5,130.833 130.5,132.5C 129.539,130.735 129.205,128.735 129.5,126.5C 133.833,126.5 138.167,126.5 142.5,126.5 Z"/></g>
</svg>
